<?xml version="1.0" encoding="UTF-8" standalone="no"?>
<!-- Created with Vectornator (http://vectornator.io/) -->

<svg
   stroke-miterlimit="10"
   style="clip-rule:evenodd;fill-rule:nonzero;stroke-linecap:round;stroke-linejoin:round"
   version="1.1"
   viewBox="0 0 30 30"
   xml:space="preserve"
   id="svg597"
   sodipodi:docname="all-atom-structure.svg"
   width="30"
   height="30"
   xmlns:inkscape="http://www.inkscape.org/namespaces/inkscape"
   xmlns:sodipodi="http://sodipodi.sourceforge.net/DTD/sodipodi-0.dtd"
   xmlns="http://www.w3.org/2000/svg"
   xmlns:svg="http://www.w3.org/2000/svg"><sodipodi:namedview
   id="namedview599"
   pagecolor="#ffffff"
   bordercolor="#666666"
   borderopacity="1.0"
   inkscape:showpageshadow="2"
   inkscape:pageopacity="0.0"
   inkscape:pagecheckerboard="0"
   inkscape:deskcolor="#d1d1d1"
   showgrid="false" />
<defs
   id="defs580" />
<path
   d="M 14.6875,2.625 C 9.47424,6.41265 11.2928,5.10373 9.5,6.40625 8.42589,7.18664 7.32411,7.96961 6.25,8.75 5.51208,9.28613 4.80042,9.80762 4.0625,10.3438 3.64239,10.649 3.12223,10.9561 2.84375,11.4062 c -0.41998,0.6789 0.31244,2.2041 0.5,2.7813 0.07148,0.22 0.15026,0.4353 0.21875,0.6563 0.229,0.7388 0.43853,1.4765 0.65625,2.2187 0.3578,1.2198 0.70408,2.4366 1.0625,3.6563 0.21665,0.7372 0.43916,1.4816 0.65625,2.2187 0.35999,1.2223 0.57269,3.2477 2.0625,3.5937 0.47229,0.1098 0.98465,0.0821 1.46875,0.0938 0.61445,0.0148 1.22925,0.0184 1.84375,0.0312 1.3816,0.029 2.3056,0.0359 3.6875,0.0313 1.2293,-0.0041 2.4589,-0.0218 3.6875,-0.0625 0.6145,-0.0203 1.2293,-0.0424 1.8437,-0.0625 0.8037,-0.0263 1.8421,0.0911 2.4376,-0.5625 0.3291,-0.3613 0.4977,-1.222 0.625,-1.6562 0.0701,-0.2394 0.1485,-0.4794 0.2187,-0.7188 0.0651,-0.2221 0.1224,-0.4654 0.1875,-0.6875 0.2178,-0.7425 0.4373,-1.4766 0.6562,-2.2187 0.3596,-1.219 0.6915,-2.441 1.0626,-3.6563 0.3782,-1.2388 0.8185,-2.4558 1.2187,-3.6875 0.0873,-0.2686 0.5741,-1.4588 0.5,-1.6562 C 27.199,11.0835 26.6798,10.9031 26.125,10.5 25.4614,10.0178 24.7886,9.51341 24.125,9.03125 22.204,7.63555 24.1515,9.04692 15.3125,2.625 15.2134,2.55298 15.1135,2.65001 15,2.65625 14.8865,2.65001 14.7866,2.55298 14.6875,2.625 Z M 15,3.65625 c 2.0956,1.52258 1.9028,1.393 2.7812,2.03125 1.6934,1.23028 3.3692,2.45722 5.0626,3.6875 1.0295,0.748 2.0642,1.502 3.0937,2.25 0.1323,0.0961 0.274,0.1851 0.4063,0.2812 -0.019,0.0593 -0.0434,0.1283 -0.0626,0.1876 -0.0949,0.2941 -0.2169,0.581 -0.3124,0.875 -0.2915,0.8968 -0.5825,1.7909 -0.875,2.6874 -0.6255,1.9169 -1.2924,3.8192 -1.9688,5.7188 -0.2995,0.8412 -0.6057,1.6591 -0.9062,2.5 -0.0939,0.2627 -0.1888,0.5224 -0.2813,0.7812 -0.0292,0.0816 -0.0646,0.1685 -0.0937,0.25 -0.0385,0.0056 -0.0852,0.0284 -0.125,0.0313 -0.1094,0.008 -0.2031,0.0036 -0.3126,0 -0.288,-0.0095 -0.5869,-0.0218 -0.875,-0.0313 -1.2289,-0.0401 -2.4581,-0.0977 -3.6874,-0.125 -2.4583,-0.0544 -4.9176,0.0034 -7.37505,0.0626 -0.33362,0.008 -0.96468,0.1511 -1.25,-0.0313 C 8.04135,24.6991 7.97859,24.2033 7.90625,24 7.725,23.4907 7.55537,22.9756 7.375,22.4688 6.90484,21.1476 6.40895,19.852 5.9375,18.5312 5.60167,17.5904 5.27346,16.6283 4.9375,15.6875 4.72088,15.0809 4.51156,14.4876 4.3125,13.875 4.23545,13.6379 4.1708,13.3934 4.09375,13.1562 4.00993,12.8983 3.92757,12.633 3.84375,12.375 3.6507,11.7808 3.65603,11.9003 4.25,11.4688 4.38017,11.3742 4.52608,11.2821 4.65625,11.1875 5.08347,10.8771 5.51028,10.5604 5.9375,10.25 6.55891,9.79852 7.19109,9.35773 7.8125,8.90625 c 1.02799,-0.74688 2.03451,-1.50312 3.0625,-2.25 0.7564,-0.54953 0.6595,-0.48217 4.125,-3 z"
   fill="#000000"
   stroke="none"
   id="path622" /><path
   d="m 12,3.62129 c 0,-1.65686 1.3431,-3.000003 3,-3.000003 1.6569,0 3,1.343143 3,3.000003 0,1.65685 -1.3431,3 -3,3 -1.6569,0 -3,-1.34315 -3,-3 z"
   fill="#000000"
   fill-rule="evenodd"
   opacity="1"
   stroke="none"
   id="path625" /><path
   d="m 24,11.3787 c 0,-1.65684 1.3431,-2.99999 3,-2.99999 1.6569,0 3,1.34315 3,2.99999 0,1.6569 -1.3431,3 -3,3 -1.6569,0 -3,-1.3431 -3,-3 z"
   fill="#000000"
   fill-rule="evenodd"
   opacity="1"
   stroke="none"
   id="path628" /><path
   d="m 19.7662,26.3787 c 0,-1.6568 1.3431,-3 3,-3 1.6568,0 3,1.3432 3,3 0,1.6569 -1.3432,3 -3,3 -1.6569,0 -3,-1.3431 -3,-3 z"
   fill="#000000"
   fill-rule="evenodd"
   opacity="1"
   stroke="none"
   id="path631" /><path
   d="m 4.65994,26.3787 c 0,-1.6568 1.34314,-3 3,-3 1.65685,0 2.99996,1.3432 2.99996,3 0,1.6569 -1.34311,3 -2.99996,3 -1.65686,0 -3,-1.3431 -3,-3 z"
   fill="#000000"
   fill-rule="evenodd"
   opacity="1"
   stroke="none"
   id="path634" /><path
   d="m 0.031425,12.0152 c 0,-1.6569 1.343145,-3.00003 2.999995,-3.00003 1.65686,0 3,1.34313 3,3.00003 0,1.6568 -1.34314,3 -3,3 -1.65685,0 -2.999995,-1.3432 -2.999995,-3 z"
   fill="#000000"
   fill-rule="evenodd"
   opacity="1"
   stroke="none"
   id="path637" />
</svg>
