<?xml version="1.0" encoding="UTF-8" standalone="no"?>
<!-- Created with Vectornator (http://vectornator.io/) -->

<svg
   stroke-miterlimit="10"
   style="clip-rule:evenodd;fill-rule:nonzero;stroke-linecap:round;stroke-linejoin:round"
   version="1.1"
   viewBox="0 0 30 30"
   xml:space="preserve"
   id="svg370"
   sodipodi:docname="append-amino-acid.svg"
   width="30"
   height="30"
   xmlns:inkscape="http://www.inkscape.org/namespaces/inkscape"
   xmlns:sodipodi="http://sodipodi.sourceforge.net/DTD/sodipodi-0.dtd"
   xmlns="http://www.w3.org/2000/svg"
   xmlns:svg="http://www.w3.org/2000/svg"><sodipodi:namedview
   id="namedview372"
   pagecolor="#ffffff"
   bordercolor="#666666"
   borderopacity="1.0"
   inkscape:showpageshadow="2"
   inkscape:pageopacity="0.0"
   inkscape:pagecheckerboard="0"
   inkscape:deskcolor="#d1d1d1"
   showgrid="false" />
<defs
   id="defs311" />
<path
   d="m 8.11472,14.317 c -0.47252,0.0934 -0.91829,0.3086 -1.31528,0.6443 -0.18113,0.1531 -0.27694,0.3714 -0.29527,0.5905 -0.01834,0.2191 0.03475,0.4362 0.18789,0.6174 0.3063,0.3622 0.87251,0.4136 1.23476,0.1073 0.33999,-0.2874 0.74812,-0.3462 1.28845,-0.2147 0.58302,0.1419 1.24033,0.4937 1.93263,1.02 0.3394,0.258 0.6749,0.5274 0.9664,0.8053 0.173,0.165 0.2885,0.3098 0.3489,0.3758 0.1602,0.175 0.3709,0.2587 0.5906,0.2684 0.2196,0.0098 0.4424,-0.0546 0.6173,-0.2147 0.35,-0.3203 0.374,-0.858 0.0537,-1.2079 -0.0854,-0.0934 -0.2266,-0.2629 -0.4295,-0.4564 -0.335,-0.3195 -0.7064,-0.6398 -1.1005,-0.9394 C 11.3309,15.0561 10.47,14.5781 9.61791,14.3707 9.09815,14.2442 8.58724,14.2236 8.11472,14.317 Z m 0.99318,4.5096 c -0.21983,3e-4 -0.44991,0.1004 -0.61738,0.2684 -0.16747,0.168 -0.24191,0.3976 -0.24159,0.6174 3.3e-4,0.2198 0.07361,0.4231 0.24159,0.5905 0.09021,0.09 0.26982,0.2413 0.48316,0.4295 0.35281,0.3113 0.72046,0.6208 1.12742,0.9127 0.7062,0.5065 1.4146,0.9101 2.0937,1.1542 1.194,0.4292 2.2906,0.364 3.1406,-0.3758 0.1789,-0.1557 0.28,-0.3712 0.2952,-0.5905 0.0152,-0.2193 -0.059,-0.4385 -0.2147,-0.6174 -0.3114,-0.3579 -0.8501,-0.392 -1.2079,-0.0805 -0.3036,0.2642 -0.757,0.2929 -1.4227,0.0536 -0.5084,-0.1827 -1.0765,-0.5179 -1.6642,-0.9395 -0.3564,-0.2556 -0.708,-0.5299 -1.02,-0.8052 C 9.9155,19.2802 9.79197,19.1615 9.72528,19.095 9.5573,18.9275 9.32772,18.8263 9.1079,18.8266 Z m -5.66379,2.04 c -0.22693,0.0198 -0.43723,0.1282 -0.59053,0.3221 l -2.630578,3.3554 c -0.1428213,0.1806 -0.2084052,0.4041 -0.1878984,0.6173 0.0205068,0.2133 0.1206404,0.4136 0.2952684,0.5637 0.116717,0.1004 3.453838,2.9963 3.650588,3.1675 0.77997,0.6703 1.69751,1.0452 2.55005,1.1005 0.85254,0.0554 1.6667,-0.2227 2.25478,-0.8321 C 8.9505,28.9903 9.00444,28.7902 9.00053,28.5705 8.99662,28.3507 8.92962,28.1178 8.75894,27.9531 8.41759,27.6236 7.85361,27.6386 7.52419,27.9799 7.05429,28.4668 6.03394,28.3728 5.10835,27.5773 4.94537,27.4355 2.9334,25.7122 2.07514,24.9735 l 1.55687,-1.9863 2.79163,2.4964 C 6.7777,25.7993 7.31582,25.7571 7.63156,25.403 7.94729,25.049 7.93193,24.5108 7.57787,24.1951 L 4.08833,21.0814 C 3.90383,20.9168 3.67105,20.8469 3.44411,20.8666 Z M 15.7649,7.28428 c -0.9201,-0.03658 -1.8085,0.26825 -2.389,0.91265 -0.1588,0.17623 -0.2262,0.39785 -0.2148,0.61738 0.0115,0.21953 0.1191,0.43178 0.2953,0.59054 0.3525,0.31751 0.8904,0.29878 1.2079,-0.05369 0.4728,-0.52481 1.7239,-0.49162 2.5769,0.32211 0.191,0.16714 2.2346,1.92383 3.0869,2.65743 L 18.7444,14.317 15.577,11.6328 c -0.3614,-0.3074 -0.9006,-0.254 -1.208,0.1074 -0.3073,0.3613 -0.2539,0.9005 0.1074,1.2079 l 3.8385,3.2748 c 0.1853,0.1576 0.3938,0.21 0.6174,0.1879 0.2236,-0.0222 0.4397,-0.1313 0.5905,-0.3222 l 2.6574,-3.3284 C 22.323,12.5795 22.3887,12.3561 22.3681,12.1428 22.3476,11.9295 22.2475,11.7024 22.0729,11.5523 21.9561,11.4519 18.5922,8.58281 18.3954,8.41167 17.6519,7.70176 16.6849,7.32086 15.7649,7.28428 Z"
   fill="#000000"
   fill-rule="evenodd"
   opacity="1"
   stroke="none"
   id="path313" /><path
   d="M 7.55103,14.7734 C 7.26667,14.7112 6.9416,14.7939 6.71891,15.0418 l -1.98635,2.2279 c -0.46236,0.4787 -0.70026,1.1605 -0.69791,1.9327 0.00235,0.7722 0.223,1.644 0.64422,2.4963 0.05226,0.1187 1.09764,2.4053 1.12739,2.4696 0.41514,0.896 0.76166,1.5724 0.96633,1.9595 0.11445,0.2159 0.21063,0.4893 0.29527,0.8321 0.08762,0.3548 0.14535,0.7652 0.1879,1.1542 0.02554,0.2335 0.04984,0.3885 0.05368,0.4832 0.03103,0.7641 0.9573,1.1254 1.47635,0.5637 l 2.33531,-2.5232 c 0.4664,-0.4832 0.6992,-1.1594 0.6979,-1.9327 -0.0013,-0.7733 -0.2498,-1.644 -0.6711,-2.4963 C 11.1436,22.1977 9.2882,18.1228 9.08106,17.6992 9.04597,17.6249 9.01337,17.5461 8.97368,17.4576 8.76912,17.0013 8.58614,16.5017 8.40999,16.0081 8.30434,15.7121 8.2077,15.4902 8.16841,15.3639 8.0694,15.0457 7.83539,14.8355 7.55103,14.7734 Z m -0.51001,2.4963 c 0.11778,0.3012 0.24732,0.5993 0.37579,0.8858 0.04445,0.0992 2.18381,4.7396 2.2011,4.778 0.57019,1.1551 0.57639,2.1763 0.24158,2.5232 L 8.75894,26.6646 C 8.75078,26.6296 8.74067,26.592 8.7321,26.5573 8.61637,26.0886 8.46396,25.6775 8.27578,25.3225 8.09022,24.9716 7.76568,24.3124 7.36313,23.4435 7.33374,23.38 6.3013,21.094 6.23574,20.9472 5.66454,19.7899 5.63254,18.7977 5.96732,18.4508 Z M 14.3154,7.95535 C 14.0163,7.84307 13.6639,7.89938 13.4027,8.17009 L 10.96,10.7201 c -0.4727,0.4899 -0.6976,1.1577 -0.6979,1.9327 -2e-4,0.775 0.223,1.644 0.6443,2.4964 0.0694,0.1431 1.9955,4.0671 2.201,4.4558 0.08,0.1606 0.1559,0.3494 0.2416,0.5637 0.1567,0.3916 0.3062,0.8093 0.4295,1.2348 0.0739,0.2551 0.1361,0.4571 0.1611,0.5637 0.1553,0.6622 0.9772,0.8921 1.4495,0.4026 l 2.1742,-2.2548 c 0.4728,-0.4898 0.6977,-1.1845 0.6979,-1.9595 3e-4,-0.7749 -0.223,-1.644 -0.6442,-2.4963 -0.0739,-0.1513 -1.9649,-4.055 -2.1743,-4.4827 C 15.3554,10.9919 15.274,10.7817 15.2012,10.5322 15.087,10.1416 14.9885,9.69883 14.9327,9.27063 14.8993,9.01381 14.8842,8.83723 14.8791,8.73378 14.8605,8.35807 14.6144,8.06762 14.3154,7.95535 Z m -0.859,2.63055 c 0.0338,0.1419 0.0401,0.2912 0.0805,0.4295 0.0969,0.3316 0.2153,0.6304 0.349,0.9126 0.214,0.4375 2.1255,4.328 2.2011,4.4828 0.5587,1.1305 0.5763,2.1494 0.2416,2.4963 L 15.1743,20.115 C 15.1064,19.9197 15.0348,19.7125 14.9596,19.5245 14.857,19.2682 14.749,19.0498 14.6375,18.8266 14.4329,18.4392 13.6057,16.7902 13.5906,16.7597 13.3353,16.2422 12.508,14.5452 12.4364,14.3976 11.8767,13.265 11.86,12.2481 12.1948,11.9012 Z"
   fill="#000000"
   fill-rule="evenodd"
   opacity="1"
   stroke="none"
   id="path315" /><path
   style="color:#000000;clip-rule:nonzero;fill:#000000;fill-rule:evenodd;stroke-miterlimit:10;-inkscape-stroke:none"
   d="m 27.021484,1.2128906 -5.623047,0.054687 h -0.002 a 1.0001,1.0001 0 0 0 0.01953,2 h 0.002 0.01953 l 3.439453,-0.03125 -3.849609,4.6269531 a 1,1 0 0 0 0.128906,1.4082032 1,1 0 0 0 1.408203,-0.1289063 l 3.923828,-4.7148437 0.492188,2.8085937 a 1,1 0 0 0 1.15625,0.8125 1,1 0 0 0 0.8125,-1.1582031 L 28.101562,2.0449219 A 1.0001,1.0001 0 0 0 27.900391,1.8769531 1.0001,1.0001 0 0 0 27.171875,1.2714844 1.0001,1.0001 0 0 0 27.107422,1.2167969 h -0.07422 a 1.0001,1.0001 0 0 0 -0.01172,-0.00391 z"
   id="path317" /><path
   d="M 2.90726,22.9872 C 2.88271,22.9838 2.857,22.9895 2.85358,23.014 l -0.3758,2.7111 c -0.00343,0.0246 0.02913,0.0503 0.05368,0.0537 0.02455,0.0034 0.02342,-0.0023 0.02685,-0.0268 L 2.9341,23.0409 C 2.93753,23.0163 2.93181,22.9906 2.90726,22.9872 Z"
   fill="#000000"
   fill-rule="evenodd"
   opacity="1"
   stroke="none"
   id="path319" /><path
   d="m 3.60517,22.8261 c -0.0245,-0.0037 -0.04992,0.0292 -0.05369,0.0537 l -0.51001,3.2748 c -0.00377,0.0245 0.02919,0.0231 0.05369,0.0269 0.0245,0.0037 0.04991,-0.0024 0.05368,-0.0269 L 3.63201,22.8798 C 3.63578,22.8553 3.62967,22.8299 3.60517,22.8261 Z"
   fill="#000000"
   fill-rule="evenodd"
   opacity="1"
   stroke="none"
   id="path321" /><path
   d="M 4.22255,23.363 C 4.19816,23.3585 4.17332,23.3654 4.16886,23.3898 l -0.59054,3.2748 c -0.00445,0.0244 0.02931,0.0493 0.05369,0.0537 0.02438,0.0045 0.02239,-0.0024 0.02684,-0.0268 L 4.27623,23.4167 C 4.28069,23.3923 4.24693,23.3674 4.22255,23.363 Z"
   fill="#000000"
   fill-rule="evenodd"
   opacity="1"
   stroke="none"
   id="path323" /><path
   d="M 4.9473,23.5777 C 4.92282,23.5738 4.89754,23.6069 4.89361,23.6314 l -0.53685,3.3285 c -0.00393,0.0245 0.02921,0.0498 0.05369,0.0537 0.02447,0.0039 0.04976,-0.0024 0.05368,-0.0269 L 5.00098,23.6314 C 5.00491,23.6069 4.97177,23.5817 4.9473,23.5777 Z"
   fill="#000000"
   fill-rule="evenodd"
   opacity="1"
   stroke="none"
   id="path325" /><path
   d="m 5.51099,24.1414 c -0.02466,-0.0025 -0.02431,0.029 -0.02684,0.0537 l -0.34896,3.3553 c -0.00253,0.0247 0.00219,0.0512 0.02685,0.0537 0.02466,0.0026 0.05115,-0.0022 0.05368,-0.0268 L 5.56468,24.1951 C 5.56721,24.1705 5.53565,24.144 5.51099,24.1414 Z"
   fill="#000000"
   fill-rule="evenodd"
   opacity="1"
   stroke="none"
   id="path327" /><path
   d="M 6.021,24.7856 C 5.99625,24.7843 5.96868,24.7877 5.96732,24.8125 l -0.1879,3.4358 c -0.00137,0.0248 0.02893,0.0524 0.05368,0.0537 0.02475,0.0014 0.05232,-0.0289 0.05369,-0.0537 l 0.1879,-3.409 C 6.07605,24.8146 6.04575,24.787 6.021,24.7856 Z"
   fill="#000000"
   fill-rule="evenodd"
   opacity="1"
   stroke="none"
   id="path329" /><path
   d="m 6.53101,25.242 c -0.02478,-8e-4 -0.05292,0.0289 -0.05369,0.0537 l -0.08052,3.06 c -7.7e-4,0.0248 0.00206,0.0529 0.02684,0.0537 0.02478,8e-4 0.05292,-0.0289 0.05368,-0.0537 l 0.08053,-3.06 C 6.55862,25.2709 6.55579,25.2427 6.53101,25.242 Z"
   fill="#000000"
   fill-rule="evenodd"
   opacity="1"
   stroke="none"
   id="path331" /><path
   d="M 6.93365,26.3157 C 6.9089,26.3143 6.8813,26.3446 6.87996,26.3694 l -0.10737,2.3353 v 0.0268 c 0.00768,0.0086 0.01447,-7e-4 0.02685,0 0.02475,0.0013 0.05234,-0.0021 0.05368,-0.0268 L 6.98733,26.3694 C 6.98867,26.3446 6.9584,26.317 6.93365,26.3157 Z"
   fill="#000000"
   fill-rule="evenodd"
   opacity="1"
   stroke="none"
   id="path333" /><path
   d="M 8.89316,15.9008 C 8.86845,15.8988 8.84145,15.9297 8.83947,15.9544 L 8.70526,17.5113 C 8.70328,17.536 8.73423,17.563 8.75894,17.565 8.78365,17.567 8.81065,17.5629 8.81263,17.5381 L 8.92,15.9544 C 8.92198,15.9297 8.91787,15.9027 8.89316,15.9008 Z"
   fill="#000000"
   fill-rule="evenodd"
   opacity="1"
   stroke="none"
   id="path335" /><path
   d="M 9.59106,15.9276 C 9.56638,15.9254 9.53959,15.9566 9.53738,15.9813 L 9.32264,18.424 c -0.00222,0.0246 0.00215,0.0514 0.02684,0.0536 0.02469,0.0023 0.05147,-0.0021 0.05369,-0.0268 L 9.61791,15.9813 C 9.62012,15.9566 9.61575,15.9298 9.59106,15.9276 Z"
   fill="#000000"
   fill-rule="evenodd"
   opacity="1"
   stroke="none"
   id="path337" /><path
   d="m 10.3695,16.4913 c -0.0246,-0.0029 -0.0508,0.0291 -0.0537,0.0537 l -0.34894,2.9258 c -0.00291,0.0246 0.02907,0.0508 0.05364,0.0537 0.0247,0.0029 0.0508,-0.0291 0.0537,-0.0537 l 0.3221,-2.9258 c 0.003,-0.0246 -0.0022,-0.0508 -0.0268,-0.0537 z"
   fill="#000000"
   fill-rule="evenodd"
   opacity="1"
   stroke="none"
   id="path339" /><path
   d="m 11.0406,16.6792 c -0.0247,-0.002 -0.0517,0.029 -0.0537,0.0537 l -0.2953,3.5163 c -0.002,0.0248 0.029,0.0517 0.0537,0.0537 0.0247,0.002 0.0517,-0.0021 0.0537,-0.0268 l 0.2684,-3.5432 c 0.002,-0.0247 -0.0021,-0.0517 -0.0268,-0.0537 z"
   fill="#000000"
   fill-rule="evenodd"
   opacity="1"
   stroke="none"
   id="path341" /><path
   d="m 11.7116,17.1624 c -0.0247,-0.0024 -0.0245,0.029 -0.0268,0.0536 l -0.3221,3.3285 c -0.0024,0.0247 0.0021,0.0514 0.0268,0.0537 0.0247,0.0023 0.0514,-0.029 0.0537,-0.0537 l 0.3221,-3.3285 c 0.0023,-0.0246 -0.029,-0.0513 -0.0537,-0.0536 z"
   fill="#000000"
   fill-rule="evenodd"
   opacity="1"
   stroke="none"
   id="path343" /><path
   d="m 12.2485,17.7797 c -0.0248,-7e-4 -0.0261,0.0289 -0.0269,0.0537 l -0.1073,3.1406 c -8e-4,0.0248 0.0289,0.0529 0.0537,0.0537 0.0247,7e-4 0.0261,-0.0289 0.0268,-0.0537 l 0.1074,-3.1406 c 7e-4,-0.0248 -0.0289,-0.0529 -0.0537,-0.0537 z"
   fill="#000000"
   fill-rule="evenodd"
   opacity="1"
   stroke="none"
   id="path345" /><path
   d="m 12.7585,18.5045 c -0.0248,6e-4 -0.0543,0.0289 -0.0537,0.0537 l 0.0805,2.6574 c 6e-4,0.0248 0.0021,0.0274 0.0269,0.0268 0.0248,-6e-4 0.0542,-0.002 0.0537,-0.0268 l -0.0537,-2.6574 c -6e-4,-0.0248 -0.0289,-0.0543 -0.0537,-0.0537 z"
   fill="#000000"
   fill-rule="evenodd"
   opacity="1"
   stroke="none"
   id="path347" /><path
   d="m 13.3759,19.8198 c -0.0248,-8e-4 -0.0261,0.002 -0.0269,0.0268 l -0.0805,1.9327 c -8e-4,0.0248 0.0289,0.026 0.0537,0.0268 0.0248,8e-4 0.0529,-0.002 0.0537,-0.0268 l 0.0537,-1.9327 c 8e-4,-0.0248 -0.029,-0.026 -0.0537,-0.0268 z"
   fill="#000000"
   fill-rule="evenodd"
   opacity="1"
   stroke="none"
   id="path349" /><path
   d="m 15.3354,9.00221 c -0.0248,0.00142 -0.0551,0.02893 -0.0537,0.05368 l 0.161,2.73791 c 0.0015,0.0248 0.029,0.0551 0.0537,0.0537 0.0248,-0.0014 0.0551,-0.0289 0.0537,-0.0537 L 15.3891,9.05589 C 15.3876,9.03114 15.3601,9.00078 15.3354,9.00221 Z"
   fill="#000000"
   fill-rule="evenodd"
   opacity="1"
   stroke="none"
   id="path351" /><path
   d="m 16.1943,8.92168 c -0.0247,-0.00165 -0.052,0.00211 -0.0536,0.02684 l -0.2148,3.30168 c -0.0016,0.0247 0.0021,0.052 0.0269,0.0536 0.0247,0.0017 0.052,-0.0021 0.0536,-0.0268 l 0.2148,-3.32848 c 8e-4,-0.01237 0.0075,-0.0182 0,-0.02684 z"
   fill="#000000"
   fill-rule="evenodd"
   opacity="1"
   stroke="none"
   id="path353" /><path
   d="M 16.758,9.21695 C 16.7334,9.2139 16.7074,9.24603 16.7043,9.27063 l -0.4026,3.30167 c -0.003,0.0246 0.0023,0.0506 0.0269,0.0537 0.0246,0.003 0.0506,-0.0291 0.0536,-0.0537 L 16.8117,9.27063 C 16.8148,9.24603 16.7826,9.21999 16.758,9.21695 Z"
   fill="#000000"
   fill-rule="evenodd"
   opacity="1"
   stroke="none"
   id="path355" /><path
   d="M 17.4291,9.70011 C 17.4048,9.6952 17.3803,9.70266 17.3754,9.72696 l -0.6442,3.11374 c -0.0049,0.0243 0.0294,0.0488 0.0537,0.0537 0.0243,0.0049 0.0488,-0.0026 0.0537,-0.0269 L 17.4559,9.7538 C 17.4609,9.7295 17.4534,9.70502 17.4291,9.70011 Z"
   fill="#000000"
   fill-rule="evenodd"
   opacity="1"
   stroke="none"
   id="path357" /><path
   d="m 18.2075,10.1028 c -0.0234,-0.0082 -0.0455,0.0034 -0.0537,0.0268 l -1.1005,3.1674 c -0.0082,0.0234 0.0034,0.0455 0.0268,0.0537 0.0234,0.0082 0.0455,-0.0034 0.0537,-0.0268 l 1.1006,-3.1675 c 0.0082,-0.0234 -0.0035,-0.0455 -0.0269,-0.0536 z"
   fill="#000000"
   fill-rule="evenodd"
   opacity="1"
   stroke="none"
   id="path359" /><path
   d="m 18.6907,10.4785 c -0.0236,-0.0074 -0.0462,0.0033 -0.0537,0.0269 l -0.9395,3.0064 c -0.0074,0.0236 0.0032,0.0462 0.0269,0.0536 0.0236,0.0075 0.0462,-0.0032 0.0537,-0.0268 l 0.9394,-2.9795 C 18.725,10.5354 18.7143,10.486 18.6907,10.4785 Z"
   fill="#000000"
   fill-rule="evenodd"
   opacity="1"
   stroke="none"
   id="path361" /><path
   d="m 19.0933,10.908 c -0.0238,-0.0066 -0.047,0.003 -0.0536,0.0269 l -0.9127,3.2748 c -0.0067,0.0238 0.003,0.047 0.0268,0.0537 0.0239,0.0066 0.0471,-0.003 0.0537,-0.0269 l 0.9127,-3.2748 c 0.0066,-0.0239 -0.003,-0.047 -0.0269,-0.0537 z"
   fill="#000000"
   fill-rule="evenodd"
   opacity="1"
   stroke="none"
   id="path363" /><path
   d="m 19.4423,11.2838 c -0.0243,-0.0049 -0.0488,0.0026 -0.0537,0.0269 l -0.6174,3.1137 c -0.0049,0.0243 0.0026,0.0488 0.0269,0.0537 0.0243,0.0049 0.0488,-0.0026 0.0537,-0.0268 l 0.6173,-3.1138 c 0.0049,-0.0243 -0.0025,-0.0488 -0.0268,-0.0537 z"
   fill="#000000"
   fill-rule="evenodd"
   opacity="1"
   stroke="none"
   id="path365" /><path
   d="m 19.9255,11.6865 c -0.0242,-0.0054 -0.0484,0.0026 -0.0537,0.0268 l -0.4295,1.8521 c -0.0053,0.0243 0.0295,0.0484 0.0537,0.0537 0.0242,0.0054 0.0483,-0.0026 0.0537,-0.0268 l 0.4026,-1.8521 c 0.0053,-0.0243 -0.0026,-0.0484 -0.0268,-0.0537 z"
   fill="#000000"
   fill-rule="evenodd"
   opacity="1"
   stroke="none"
   id="path367" />
</svg>
