<?xml version="1.0" encoding="UTF-8" standalone="no"?>
<!-- Created with Vectornator (http://vectornator.io/) -->

<svg
   height="30"
   stroke-miterlimit="10"
   style="clip-rule:evenodd;fill-rule:nonzero;stroke-linecap:round;stroke-linejoin:round"
   version="1.1"
   viewBox="0 0 30 30"
   width="30"
   xml:space="preserve"
   id="svg1615"
   sodipodi:docname="axes.svg"
   xmlns:inkscape="http://www.inkscape.org/namespaces/inkscape"
   xmlns:sodipodi="http://sodipodi.sourceforge.net/DTD/sodipodi-0.dtd"
   xmlns="http://www.w3.org/2000/svg"
   xmlns:svg="http://www.w3.org/2000/svg"><sodipodi:namedview
   id="namedview1617"
   pagecolor="#ffffff"
   bordercolor="#000000"
   borderopacity="0.25"
   inkscape:showpageshadow="2"
   inkscape:pageopacity="0.0"
   inkscape:pagecheckerboard="0"
   inkscape:deskcolor="#d1d1d1"
   showgrid="false" />
<defs
   id="defs1600" />
<path
   style="color:#000000;clip-rule:nonzero;fill:#000000;fill-rule:evenodd;stroke-miterlimit:10;-inkscape-stroke:none"
   d="m 22.525391,18.224609 -17.6269535,7.31836 a 1,1 0 0 0 -0.5390625,1.30664 1,1 0 0 0 1.3066406,0.539063 l 17.6269534,-7.31836 a 1,1 0 0 0 0.541015,-1.30664 1,1 0 0 0 -1.308593,-0.539063 z"
   id="path1602" /><path
   style="color:#000000;clip-rule:nonzero;fill:#000000;fill-rule:evenodd;stroke-miterlimit:10;-inkscape-stroke:none"
   d="M 6.3964844,8.9433594 A 1,1 0 0 0 5.0449219,9.3613281 1,1 0 0 0 5.4628906,10.712891 l 16.9980464,8.96875 a 1,1 0 0 0 1.34961,-0.416016 1,1 0 0 0 -0.416016,-1.351563 z"
   id="path1604" /><path
   style="color:#000000;clip-rule:nonzero;fill:#000000;fill-rule:evenodd;stroke-miterlimit:10;-inkscape-stroke:none"
   d="m 23.003906,1.4414062 a 1,1 0 0 0 -0.996094,1.0039063 l 0.06445,16.6777345 a 1,1 0 0 0 1.003906,0.996094 1,1 0 0 0 0.996094,-1.003907 L 24.007812,2.4375 A 1,1 0 0 0 23.003906,1.4414062 Z"
   id="path1606" /><path
   style="color:#000000;clip-rule:nonzero;fill:#000000;fill-rule:evenodd;stroke-linejoin:miter;stroke-miterlimit:10;-inkscape-stroke:none"
   d="M 8.5253906,7.9199219 4.5527344,9.1054688 4.8066406,13.527344 A 1,1 0 0 0 5.8632812,14.46875 1,1 0 0 0 6.8046875,13.412109 L 6.640625,10.570313 9.0976563,9.8359375 A 1,1 0 0 0 9.7695313,8.5917969 1,1 0 0 0 8.5253906,7.9199219 Z"
   id="path1608" /><path
   style="color:#000000;clip-rule:nonzero;fill:#000000;fill-rule:evenodd;stroke-linejoin:miter;stroke-miterlimit:10;-inkscape-stroke:none"
   d="m 6.8164062,21.945312 a 1,1 0 0 0 -1.3222656,0.503907 l -2.2167968,4.953125 5.4492187,1.677734 a 1,1 0 0 0 1.25,-0.662109 1,1 0 0 0 -0.6621094,-1.25 L 6.0273437,26.15625 7.3203125,23.265625 A 1,1 0 0 0 6.8164062,21.945312 Z"
   id="path1610" /><path
   style="color:#000000;clip-rule:nonzero;fill:#000000;fill-rule:evenodd;stroke-linejoin:miter;stroke-miterlimit:10;-inkscape-stroke:none"
   d="m 22.998047,0.734375 -3.41211,3.2558594 a 1,1 0 0 0 -0.0332,1.4140625 1,1 0 0 0 1.414063,0.033203 L 23.064456,3.4335937 25.425784,5.470703 A 1,1 0 0 0 26.835937,5.3671875 1,1 0 0 0 26.732422,3.9570313 Z"
   id="path1612" />
</svg>
