<?xml version="1.0" encoding="UTF-8" standalone="no"?>
<!-- Created with Vectornator (http://vectornator.io/) -->

<svg
   stroke-miterlimit="10"
   style="clip-rule:evenodd;fill-rule:nonzero;stroke-linecap:round;stroke-linejoin:round"
   version="1.1"
   viewBox="0 0 30 30"
   xml:space="preserve"
   id="svg692"
   sodipodi:docname="coarse-grained-structure.svg"
   width="30"
   height="30"
   xmlns:inkscape="http://www.inkscape.org/namespaces/inkscape"
   xmlns:sodipodi="http://sodipodi.sourceforge.net/DTD/sodipodi-0.dtd"
   xmlns="http://www.w3.org/2000/svg"
   xmlns:svg="http://www.w3.org/2000/svg"><sodipodi:namedview
   id="namedview694"
   pagecolor="#ffffff"
   bordercolor="#666666"
   borderopacity="1.0"
   inkscape:showpageshadow="2"
   inkscape:pageopacity="0.0"
   inkscape:pagecheckerboard="0"
   inkscape:deskcolor="#d1d1d1"
   showgrid="false" />

<path
   d="m 24.38,10.8366 c 0.9505,-0.86595 2.423,-0.7974 3.289,0.1532 0.8659,0.9505 0.7973,2.423 -0.1532,3.289 -0.9505,0.8659 -2.4231,0.7973 -3.289,-0.1532 -0.8659,-0.9506 -0.7973,-2.4231 0.1532,-3.289 z m 4.0521,-3.26873 c 0.9505,-0.86593 2.4231,-0.79735 3.289,0.15318 0.8659,0.95053 0.7973,2.42305 -0.1532,3.28895 -0.9505,0.866 -2.4231,0.7974 -3.289,-0.1531 C 27.413,9.90632 27.4816,8.43379 28.4321,7.56787 Z m -8.0748,5.81983 c 0.9505,-0.8659 2.4231,-0.7973 3.289,0.1532 0.8659,0.9505 0.7973,2.423 -0.1532,3.289 -0.9505,0.8659 -2.423,0.7973 -3.289,-0.1532 -0.8659,-0.9505 -0.7973,-2.4231 0.1532,-3.289 z m -4.6812,0.2262 c 0.9505,-0.8659 2.423,-0.7973 3.289,0.1532 0.8659,0.9505 0.7973,2.4231 -0.1532,3.289 -0.9506,0.8659 -2.4231,0.7973 -3.289,-0.1532 -0.8659,-0.9505 -0.7974,-2.423 0.1532,-3.289 z m -4.5359,-0.9927 c 0.9505,-0.8659 2.423,-0.7973 3.2889,0.1532 0.866,0.9505 0.7974,2.4231 -0.1531,3.289 -0.9506,0.8659 -2.4231,0.7973 -3.289,-0.1532 -0.866,-0.9505 -0.7974,-2.4231 0.1532,-3.289 z m -4.86287,0.9956 c 0.95053,-0.866 2.42306,-0.7974 3.28899,0.1531 0.86588,0.9506 0.79738,2.4231 -0.15318,3.289 C 8.46261,17.9249 6.99008,17.8563 6.12415,16.9057 5.25822,15.9552 5.3268,14.4827 6.27733,13.6168 Z M 2.73482,16.844 c 0.95053,-0.866 2.42306,-0.7974 3.28899,0.1532 0.86593,0.9505 0.79734,2.423 -0.15319,3.2889 C 4.9201,21.1521 3.44756,21.0835 2.58164,20.133 1.71571,19.1824 1.78429,17.7099 2.73482,16.844 Z m -3.063505,4.4793 C 0.621844,20.4574 2.09437,20.526 2.9603,21.4765 3.82623,22.427 3.75765,23.8996 2.80712,24.7655 1.85659,25.6314 0.384061,25.5628 -0.481868,24.6123 -1.3478,23.6618 -1.27921,22.1893 -0.328685,21.3233 Z M 12.9837,17.7231 c 0.9506,-0.8659 2.4231,-0.7973 3.289,0.1532 0.866,0.9505 0.7974,2.4231 -0.1532,3.289 -0.9505,0.8659 -2.423,0.7973 -3.2889,-0.1532 -0.866,-0.9505 -0.7974,-2.4231 0.1531,-3.289 z m -2.1341,4.3261 c 0.9505,-0.8659 2.423,-0.7973 3.289,0.1532 0.8659,0.9505 0.7973,2.4231 -0.1532,3.289 -0.9505,0.8659 -2.4231,0.7973 -3.289,-0.1532 -0.86594,-0.9505 -0.79735,-2.4231 0.1532,-3.289 z m -3.59818,3.2779 c 0.95053,-0.8659 2.42306,-0.7973 3.28898,0.1532 0.8659,0.9505 0.7974,2.4231 -0.1532,3.289 -0.9505,0.8659 -2.42303,0.7973 -3.28896,-0.1532 -0.86593,-0.9505 -0.79735,-2.423 0.15318,-3.289 z m -5.08467,0.6236 c 0.95053,-0.8659 2.42306,-0.7973 3.28899,0.1532 0.86593,0.9505 0.79735,2.4231 -0.15318,3.289 C 4.35203,30.2588 2.8795,30.1902 2.01357,29.2397 1.14764,28.2892 1.21623,26.8166 2.16675,25.9507 Z M 13.6709,8.38115 c 0.9505,-0.86593 2.4231,-0.79735 3.289,0.15318 0.8659,0.95053 0.7973,2.42307 -0.1532,3.28897 -0.9505,0.8659 -2.423,0.7974 -3.289,-0.1532 -0.8659,-0.9505 -0.7973,-2.42302 0.1532,-3.28895 z m 1.9109,-4.4221 c 0.9506,-0.86593 2.4231,-0.79735 3.289,0.15318 0.866,0.95053 0.7974,2.42306 -0.1531,3.28899 -0.9506,0.86593 -2.4231,0.79734 -3.289,-0.15318 -0.866,-0.95053 -0.7974,-2.42306 0.1531,-3.28899 z m 3.4766,-3.336854 c 0.9506,-0.865929 2.4231,-0.797347 3.289,0.153183 C 23.2133,1.72591 23.1448,3.19844 22.1942,4.06437 21.2437,4.9303 19.7712,4.86171 18.9052,3.91119 18.0393,2.96066 18.1079,1.48813 19.0584,0.622196 Z m 5.5689,-1.210634 c 0.9506,-0.865932 2.4231,-0.797352 3.289,0.153182 0.866,0.950529 0.7974,2.423056 -0.1531,3.288986 -0.9506,0.86593 -2.4231,0.79735 -3.289,-0.15318 -0.866,-0.95053 -0.7974,-2.423059 0.1531,-3.288988 z"
   fill="#000000"
   fill-rule="evenodd"
   opacity="1"
   stroke="none"
   id="path705"
   clip-path="url(#clipPath698)" />


</svg>
