<?xml version="1.0" encoding="UTF-8" standalone="no"?>
<!-- Created with Vectornator (http://vectornator.io/) -->

<svg
   stroke-miterlimit="10"
   style="clip-rule:evenodd;fill-rule:nonzero;stroke-linecap:round;stroke-linejoin:round"
   version="1.1"
   viewBox="0 0 30 30"
   xml:space="preserve"
   id="svg1481"
   sodipodi:docname="collision.svg"
   width="30"
   height="30"
   xmlns:inkscape="http://www.inkscape.org/namespaces/inkscape"
   xmlns:sodipodi="http://sodipodi.sourceforge.net/DTD/sodipodi-0.dtd"
   xmlns="http://www.w3.org/2000/svg"
   xmlns:svg="http://www.w3.org/2000/svg"><sodipodi:namedview
   id="namedview1483"
   pagecolor="#ffffff"
   bordercolor="#000000"
   borderopacity="0.25"
   inkscape:showpageshadow="2"
   inkscape:pageopacity="0.0"
   inkscape:pagecheckerboard="0"
   inkscape:deskcolor="#d1d1d1"
   showgrid="false" />
<defs
   id="defs1460" />
<path
   d="m 10.7812,0.1875 c -5.79894,0 -10.499953,4.70101 -10.49995,10.5 0,5.799 4.70101,10.5 10.49995,10.5 5.799,0 10.5,-4.701 10.5,-10.5 0,-5.79899 -4.701,-10.5 -10.5,-10.5 z m 0,1 c 5.2468,0 9.5,4.2533 9.5,9.5 0,5.2467 -4.2532,9.5 -9.5,9.5 -5.24666,0 -9.49995,-4.2533 -9.49995,-9.5 0,-5.24671 4.2533,-9.5 9.49995,-9.5 z"
   fill="#000000"
   fill-rule="evenodd"
   opacity="1"
   stroke="none"
   id="path1513" /><path
   d="m 19.3125,9.21875 c -5.5228,0 -10,4.47715 -10,10.00005 0,0.4345 0.19624,0.7988 0.25,1.2187 0.41682,0.053 0.7875,0.25 1.2187,0.25 5.5229,0 10,-4.4772 10,-10 0,-0.4312 -0.197,-0.80193 -0.25,-1.21875 -0.4168,-0.05295 -0.7875,-0.25 -1.2187,-0.25 z"
   fill="#000000"
   fill-rule="evenodd"
   opacity="1"
   stroke="none"
   id="path1516" /><path
   d="m 19.3125,8.71875 c -5.799,0 -10.5,4.70105 -10.5,10.50005 0,5.7989 4.701,10.5 10.5,10.5 5.799,0 10.5,-4.7011 10.5,-10.5 0,-5.799 -4.701,-10.50005 -10.5,-10.50005 z m 0,1 c 5.2467,0 9.5,4.25325 9.5,9.50005 0,5.2467 -4.2533,9.5 -9.5,9.5 -5.2467,0 -9.5,-4.2533 -9.5,-9.5 0,-5.2468 4.2533,-9.50005 9.5,-9.50005 z"
   fill="#000000"
   fill-rule="evenodd"
   opacity="1"
   stroke="none"
   id="path1519" /><path
   d="m 22.375,0.71875 c -0.2425,-0.065772 -0.4967,0.069971 -0.5625,0.3125 -0.2879,1.93081 -0.3078,2.15268 -0.2813,1.9375 -0.0259,0.21148 -0.0736,0.41293 -0.0937,0.625 -0.0205,0.21585 -0.1875,1.3125 -0.1875,1.3125 0,0 0.2537,-0.68279 0.4688,-1.21875 -0.0437,0.09392 0.0689,-0.14169 0.125,-0.28125 0.0298,-0.07551 0.1399,-0.34715 0.125,-0.3125 C 22.0558,2.89192 22.1689,2.70422 22.25,2.5 22.3307,2.29686 22.2368,2.49829 22.6875,1.28125 22.7533,1.03872 22.6175,0.784522 22.375,0.71875 Z"
   fill="#000000"
   fill-rule="evenodd"
   opacity="1"
   stroke="none"
   id="path1522" /><path
   d="m 27,2.59375 c -0.1922,-0.16193 -0.4943,-0.12966 -0.6562,0.0625 -1.2822,1.87453 -1.4192,2.08625 -1.2813,1.875 -0.1374,0.21065 -0.3052,0.41111 -0.4375,0.625 -0.1327,0.21456 -0.8438,1.25 -0.8438,1.25 0,0 0.6108,-0.56274 1.0938,-1.03125 C 24.686,5.54212 25.2214,5.01544 25.4062,4.84375 25.5944,4.66911 25.785,4.49176 25.9688,4.3125 26.1504,4.13525 25.9715,4.32694 27.0312,3.25 27.1932,3.05784 27.1922,2.75568 27,2.59375 Z"
   fill="#000000"
   fill-rule="evenodd"
   opacity="1"
   stroke="none"
   id="path1525" /><path
   d="M 29.0938,6.71875 C 27.0534,7.41673 26.837,7.48746 27.0625,7.40625 27.2899,7.32434 27.95,7.05463 27.7188,7.125 c -0.46,0.13996 -0.9001,0.31473 -1.3438,0.5 -0.2212,0.09235 -1.3438,0.46875 -1.3438,0.46875 0,0 2.3641,-0.27122 2.125,-0.25 C 27.395,7.82256 27.6363,7.8028 27.875,7.78125 28.1141,7.75967 27.8925,7.7846 29.3125,7.59375 29.558,7.54015 29.7098,7.30801 29.6562,7.0625 29.6026,6.81699 29.3393,6.66515 29.0938,6.71875 Z"
   fill="#000000"
   fill-rule="evenodd"
   opacity="1"
   stroke="none"
   id="path1528" /><path
   d="m 6.03125,23.5625 c 0,0 -1.91674,1.6993 -1.71875,1.5313 -0.20361,0.1725 -0.42576,0.3225 -0.625,0.5 -0.1939,0.1727 0.00917,-0.0201 -1.125,1.0312 -0.17091,0.1842 -0.15297,0.4853 0.03125,0.6562 0.18422,0.171 0.45409,0.153 0.625,-0.0312 1.40648,-1.8504 1.5581,-2.0525 1.40625,-1.8438 -0.15272,0.2101 -0.59523,0.8626 -0.4375,0.6563 0.31446,-0.4113 0.64311,-0.8554 0.9375,-1.2813 0.14681,-0.2123 0.90625,-1.2187 0.90625,-1.2187 z"
   fill="#000000"
   fill-rule="evenodd"
   opacity="1"
   stroke="none"
   id="path1531" /><path
   d="m 8.71875,25.1875 c 0,0 -0.8398,1.9813 -0.75,1.7813 -0.09036,0.2011 -0.19673,0.3901 -0.28125,0.5937 -0.08407,0.2025 0.00204,0.0047 -0.46875,1.2187 -0.06955,0.2415 0.07103,0.493 0.3125,0.5626 0.24147,0.0695 0.49295,-0.0711 0.5625,-0.3126 0.31978,-1.9323 0.34264,-2.1529 0.3125,-1.9374 C 8.43572,26.882 8.47638,26.6812 8.5,26.4688 8.52404,26.2525 8.71875,25.1875 8.71875,25.1875 Z"
   fill="#000000"
   fill-rule="evenodd"
   opacity="1"
   stroke="none"
   id="path1534" /><path
   d="m 5.07421,21.6242 c 0,0 -2.13629,0.2591 -1.91809,0.2373 -0.21943,0.0219 -0.43626,0.0238 -0.65493,0.052 -0.2175,0.028 -0.00307,0.0041 -1.29025,0.2008 -0.244016,0.06 -0.392015,0.3072 -0.331996,0.5512 0.060018,0.244 0.307196,0.392 0.551216,0.332 1.83472,-0.6855 2.03738,-0.7756 1.83557,-0.6944 0.19826,-0.08 0.39267,-0.1448 0.58861,-0.2301 0.19943,-0.0869 1.21987,-0.4488 1.21987,-0.4488 z"
   fill="#000000"
   fill-rule="evenodd"
   opacity="1"
   stroke="none"
   id="path1537" />
</svg>
