<?xml version="1.0" encoding="UTF-8" standalone="no"?>
<!-- Created with Vectornator (http://vectornator.io/) -->

<svg
   stroke-miterlimit="10"
   style="clip-rule:evenodd;fill-rule:nonzero;stroke-linecap:round;stroke-linejoin:round"
   version="1.1"
   viewBox="0 0 30 30"
   xml:space="preserve"
   id="svg1286"
   sodipodi:docname="create-complement-strand.svg"
   width="30"
   height="30"
   xmlns:inkscape="http://www.inkscape.org/namespaces/inkscape"
   xmlns:sodipodi="http://sodipodi.sourceforge.net/DTD/sodipodi-0.dtd"
   xmlns="http://www.w3.org/2000/svg"
   xmlns:svg="http://www.w3.org/2000/svg"><sodipodi:namedview
   id="namedview1288"
   pagecolor="#ffffff"
   bordercolor="#000000"
   borderopacity="0.25"
   inkscape:showpageshadow="2"
   inkscape:pageopacity="0.0"
   inkscape:pagecheckerboard="0"
   inkscape:deskcolor="#d1d1d1"
   showgrid="false" />
<defs
   id="defs1271" />
<path
   style="color:#000000;clip-rule:nonzero;fill:#000000;fill-rule:evenodd;stroke-miterlimit:10;-inkscape-stroke:none"
   d="M 1.42321,1.17293 1.36156,8.67507 10.0231,8.70168 11.1806,7.48063 13.9069,4.60476 9.93062,1.17293 Z"
   id="path1351" /><path
   style="color:#000000;clip-rule:nonzero;fill:#000000;fill-rule:evenodd;stroke-miterlimit:10;-inkscape-stroke:none"
   d="M 1.4238281,0.67382812 A 0.50005,0.50005 0 0 0 0.92382813,1.1679687 l -0.0625,7.5039063 A 0.50005,0.50005 0 0 0 1.359375,9.1757813 l 8.662109,0.025391 a 0.50005,0.50005 0 0 0 0.365235,-0.15625 l 1.15625,-1.2207032 2.726562,-2.875 A 0.50005,0.50005 0 0 0 14.234375,4.2265625 L 10.257813,0.79492187 A 0.50005,0.50005 0 0 0 9.9296875,0.67382812 Z M 1.9199219,1.6738281 H 9.7441406 L 13.185547,4.640625 10.818359,7.1367187 9.8085938,8.2011719 1.8652344,8.1777344 Z"
   id="path1354" /><path
   style="color:#000000;clip-rule:nonzero;fill:#000000;fill-rule:evenodd;stroke-miterlimit:10;-inkscape-stroke:none"
   d="m 1.42496,21.1818 -0.06145,7.5021 8.63286,0.0266 1.15373,-1.221 2.7172,-2.8759 -3.96309,-3.4318 z"
   id="path1357" /><path
   style="color:#000000;clip-rule:nonzero;fill:#000000;fill-rule:evenodd;stroke-miterlimit:10;-inkscape-stroke:none"
   d="m 1.4257812,20.681641 a 0.50005,0.50005 0 0 0 -0.49999995,0.496093 l -0.0625,7.501953 a 0.50005,0.50005 0 0 0 0.49804685,0.503907 l 8.6328125,0.02734 a 0.50005,0.50005 0 0 0 0.3652344,-0.15625 l 1.154297,-1.222656 2.716797,-2.875 a 0.50005,0.50005 0 0 0 -0.03516,-0.720703 L 10.232422,20.804687 A 0.50005,0.50005 0 0 0 9.9042969,20.681641 Z m 0.4960938,1 H 9.71875 l 3.425781,2.96875 -2.357422,2.496093 -1.005859,1.0625 -7.9140625,-0.02344 z"
   id="path1360" /><path
   style="color:#000000;clip-rule:nonzero;fill:#000000;fill-rule:evenodd;stroke-miterlimit:10;-inkscape-stroke:none"
   d="M 28.541016,0.80664063 15.996094,0.85742188 A 0.50005,0.50005 0 0 0 15.648438,1.7148437 L 19.234375,5.25 15.683594,8.5195313 a 0.50005,0.50005 0 0 0 0.341797,0.8671875 L 28.40625,9.3085938 A 0.50005,0.50005 0 0 0 28.902344,8.8183594 L 29.042969,1.3164062 A 0.50005,0.50005 0 0 0 28.541016,0.80664063 Z M 28.033203,1.8085937 27.914062,8.3125 17.3125,8.3789063 20.296875,5.6289062 a 0.50005,0.50005 0 0 0 0.01367,-0.7246093 L 17.212891,1.8515625 Z"
   id="path1363" /><path
   style="color:#000000;clip-rule:nonzero;fill:#000000;fill-rule:evenodd;stroke-miterlimit:10;-inkscape-stroke:none"
   d="m 28.507812,20.748047 -12.580078,0.05078 a 0.50005,0.50005 0 0 0 -0.347656,0.857422 l 3.595703,3.535156 -3.558593,3.269531 a 0.50005,0.50005 0 0 0 0.341796,0.867188 L 28.373047,29.25 a 0.50005,0.50005 0 0 0 0.496094,-0.490234 l 0.140625,-7.501954 A 0.50005,0.50005 0 0 0 28.507812,20.748047 Z M 28,21.75 l -0.121094,6.503906 -10.630859,0.06641 2.992187,-2.75 a 0.50005,0.50005 0 0 0 0.01172,-0.724609 l -3.105469,-3.052734 z"
   id="path1366" /><path
   style="color:#000000;clip-rule:nonzero;fill:#000000;fill-rule:evenodd;stroke-miterlimit:10;-inkscape-stroke:none"
   d="M 1.43153,11.2319 1.37432,18.734 c 0,0 5.99783,0.0534 8.03786,0.0266 2.98832,-0.1451 4.39332,-1.8645 4.46732,-3.6182 0.0739,-1.7537 -0.5177,-3.9105 -4.55313,-3.9105 -2.69369,0 -7.89484,0 -7.89484,0 z"
   id="path1369" /><path
   style="color:#000000;clip-rule:nonzero;fill:#000000;fill-rule:evenodd;stroke-miterlimit:10;-inkscape-stroke:none"
   d="M 1.4316406,10.732422 A 0.50005,0.50005 0 0 0 0.93164063,11.228516 L 0.875,18.730469 a 0.50005,0.50005 0 0 0 0.4941406,0.503906 c 0,0 5.9872058,0.05247 8.0488282,0.02539 a 0.50005,0.50005 0 0 0 0.017578,0 C 12.607396,19.105753 14.294248,17.170349 14.378906,15.164062 14.418586,14.222523 14.284156,13.10186 13.525391,12.20703 12.766625,11.3122 11.432962,10.732421 9.3261718,10.732421 Z m 0.4960938,1 h 7.3984375 c 1.9286351,0 2.9081311,0.4991 3.4355471,1.121094 0.527415,0.621993 0.653364,1.455418 0.61914,2.267578 -0.06325,1.499065 -1.186026,2.998955 -3.9824215,3.138672 -1.8980126,0.02469 -6.8547247,-0.01772 -7.5195313,-0.02344 z"
   id="path1372" /><path
   style="color:#000000;clip-rule:nonzero;fill:#000000;fill-rule:evenodd;stroke-miterlimit:10;-inkscape-stroke:none"
   d="m 28.464844,10.689453 c 0,0 -10.379931,0.06525 -12.441407,0.0918 a 0.50005,0.50005 0 0 0 0.01172,1 c -0.02002,2.26e-4 0.358707,0.0607 0.763672,0.210938 0.404965,0.150235 0.898294,0.377557 1.365234,0.671875 0.933882,0.588634 1.704064,1.405122 1.71875,2.355468 0.01473,0.955428 -0.697897,1.701722 -1.609375,2.275391 -0.911477,0.573669 -1.93391,0.908629 -2.322265,1.042969 a 0.50005,0.50005 0 0 0 0.162109,0.972656 c 2.722006,5.03e-4 12.302735,-0.119141 12.302735,-0.119141 a 0.50005,0.50005 0 0 0 0.49414,-0.496094 l 0.05859,-7.501953 a 0.50005,0.50005 0 0 0 -0.503906,-0.503906 z m -0.5,1.003906 -0.05078,6.501953 c -0.565413,0.0069 -5.794924,0.06376 -9.433593,0.0918 0.135864,-0.07516 0.191207,-0.06154 0.326172,-0.146484 1.04762,-0.659355 2.098546,-1.683096 2.076171,-3.134766 -0.02251,-1.456751 -1.11133,-2.510411 -2.185546,-3.1875 -0.03935,-0.0248 -0.07385,-0.03275 -0.113282,-0.05664 3.527586,-0.02852 8.764098,-0.06448 9.38086,-0.06836 z"
   id="path1375" />
</svg>
