<?xml version="1.0" encoding="UTF-8" standalone="no"?>
<!-- Created with Vectornator (http://vectornator.io/) -->

<svg
   stroke-miterlimit="10"
   style="clip-rule:evenodd;fill-rule:nonzero;stroke-linecap:round;stroke-linejoin:round"
   version="1.1"
   viewBox="0 0 30 30"
   xml:space="preserve"
   id="svg90"
   sodipodi:docname="create-dna-ss.svg"
   inkscape:export-filename="path-only\create-dna-ss.svg"
   inkscape:export-xdpi="96"
   inkscape:export-ydpi="96"
   width="30"
   height="30"
   xmlns:inkscape="http://www.inkscape.org/namespaces/inkscape"
   xmlns:sodipodi="http://sodipodi.sourceforge.net/DTD/sodipodi-0.dtd"
   xmlns="http://www.w3.org/2000/svg"
   xmlns:svg="http://www.w3.org/2000/svg"><sodipodi:namedview
   id="namedview92"
   pagecolor="#ffffff"
   bordercolor="#000000"
   borderopacity="0.25"
   inkscape:showpageshadow="2"
   inkscape:pageopacity="0.0"
   inkscape:pagecheckerboard="0"
   inkscape:deskcolor="#d1d1d1"
   showgrid="false" />
<defs
   id="defs48" />

<g
   opacity="1"
   id="g55">
<path
   d="m 14.7188,0.0625 c 1.2746,4.04505 -0.278,9.83816 -3.6563,12.5 -0.9583,0.7551 -1.97562,0.9991 -3.09375,1.4063 -1.08118,0.3936 -2.06643,0.9975 -2.90625,1.7812 -2.35614,2.1986 -3.99789,6.1963 -4.09375,9.8125 -0.031954,1.2054 0.09365,2.366 0.4375,3.4063 -0.0497,0.0735 0.29842,0.3825 0.75,0.6874 0.45158,0.305 0.85655,0.5112 0.90625,0.4376 -1.36555,-4.1222 0.51701,-10.2244 3.625,-13.125 0.83274,-0.7773 1.80269,-1.4223 2.875,-1.8126 1.1252,-0.4094 2.1606,-0.6151 3.125,-1.375 C 15.2468,11.7647 16.7595,7.98636 16.8125,4.5 16.8302,3.33788 16.6649,2.20786 16.3438,1.1875 16.3936,1.11392 16.0764,0.805601 15.625,0.5 15.1736,0.194399 14.7686,-0.0110753 14.7188,0.0625 Z"
   fill="#000000"
   stroke="none"
   id="path258" />
</g><g
   opacity="1"
   id="g59"
   transform="matrix(1.4670693,0,0,1,-7.3229462,0)">
<path
   d="m 13.436319,2.71875 c -0.913,0.01032 -1.8369,0.02093 -2.75,0.03125 -0.343,0.00388 -1.34303,0.03513 -0.99995,0.03125 0.62615,-0.00708 -0.02229,-0.016 -1.4375,0 -0.0575,0.06818 0.23791,0.42846 0.65625,0.78125 0.41834,0.35279 0.8175,0.56818 0.875,0.5 1.4117,-0.01568 0.8185,0.00653 1.4062,0 0.3446,-0.00383 0.6868,-0.02742 1.0313,-0.03125 0.2831,-0.00314 0.5606,0.00314 0.8437,0 0.6302,-0.007 1.2761,-0.02425 1.9063,-0.03125 0.2147,-0.00239 0.4103,0.00239 0.625,0 0.1212,-0.00135 0.4962,-0.00135 0.375,0 -0.9661,0.01073 0.0101,0.0044 0.4063,0 0.0575,-0.06825 -0.2375,-0.42811 -0.6563,-0.78125 -0.4188,-0.35314 -0.8174,-0.56825 -0.875,-0.5 -0.4077,0.00461 -0.0776,-0.00372 -0.4063,0 0.1212,-0.00137 -0.2225,-0.00137 -0.3437,0 -0.2147,0.00243 -0.4416,-0.00243 -0.6563,0 z"
   fill="#000000"
   stroke="none"
   id="path261" />
</g><g
   opacity="1"
   id="g63"
   transform="matrix(1.9519808,0,0,1,-15.414123,0.89139992)">
<path
   d="m 14.4688,7.15625 c -2.0703,0.04539 -2.609,0.04255 -2.0938,0.03125 1.043,-0.02287 -0.6532,0.02707 -0.8438,0.03125 -0.1049,0.0023 -0.2075,-0.0023 -0.3124,0 -0.1272,0.00279 -0.5022,0.00279 -0.375,0 C 11.359,7.20745 10.837,7.2385 10.3125,7.25 10.255,7.31828 10.5498,7.64722 10.9688,8 c 0.4189,0.35278 0.8175,0.56828 0.875,0.5 2.071,-0.04475 3.1058,-0.0538 2.0624,-0.03125 0.1872,-0.00404 -0.01,0.01354 2.0626,-0.03125 0.0575,-0.06834 -0.237,-0.42812 -0.6563,-0.78125 -0.4193,-0.35313 -0.7862,-0.56834 -0.8437,-0.5 z"
   fill="#000000"
   stroke="none"
   id="path264" />
</g><g
   opacity="1"
   id="g71"
   transform="matrix(1.7202557,0,0,1,-0.624823,-0.12672165)">
<path
   d="M 7,25.4375 C 5.75263,25.5507 6.27485,25.4836 5.75,25.5312 6.05561,25.5035 5.14936,25.5973 4.84375,25.625 4.59162,25.6479 4.31463,25.6646 4.0625,25.6875 3.5013,25.7384 2.96745,25.7928 2.40625,25.8438 2.21501,25.8611 2.00374,25.8889 1.8125,25.9062 1.70458,25.916 1.39208,25.9473 1.5,25.9375 c 0.86036,-0.078 0.00901,-8e-4 -0.34375,0.0313 -0.05752,0.0688 0.23357,0.397 0.65625,0.75 0.42268,0.3529 0.81748,0.6001 0.875,0.5312 C 3.03423,27.2185 2.74883,27.2444 3.03125,27.2188 3.13617,27.2092 3.23883,27.197 3.34375,27.1875 3.53494,27.1701 3.74631,27.1424 3.9375,27.125 4.1255,27.1079 4.312,27.0796 4.5,27.0625 4.86671,27.0291 5.22704,27.0021 5.59375,26.9688 5.85414,26.9451 6.11461,26.9299 6.375,26.9062 6.68053,26.8785 7.58678,26.7847 7.28125,26.8125 6.72366,26.8632 7.27094,26.8334 8.53125,26.7188 8.58872,26.6499 8.29726,26.2901 7.875,25.9375 7.45273,25.5849 7.05747,25.3687 7,25.4375 Z"
   fill="#000000"
   stroke="none"
   id="path270" />
</g><g
   opacity="1"
   id="g75"
   transform="matrix(1.9582093,0,0,1,-1.398055,-0.9717813)">
<path
   d="M 7,20.375 C 4.45239,20.5776 3.72165,20.6219 4.46875,20.5625 3.98143,20.6013 3.48732,20.6487 3,20.6875 2.83393,20.7007 2.66607,20.7055 2.5,20.7188 2.40629,20.7262 2.12504,20.7575 2.21875,20.75 c 0.7471,-0.0594 -0.00618,0.0069 -0.3125,0.0312 -0.05753,0.0689 0.26531,0.3971 0.6875,0.75 0.42219,0.353 0.78622,0.6001 0.84375,0.5313 C 3.74848,22.0377 3.49854,22.0513 3.75,22.0312 3.84357,22.0238 3.93768,22.0075 4.03125,22 c 0.12467,-0.0099 0.25033,-0.0213 0.375,-0.0312 0.06916,-0.0056 0.09893,0.0045 0.15625,0 C 5.25822,21.9132 5.96053,21.868 6.65625,21.8125 6.92155,21.7913 7.7028,21.7288 7.4375,21.75 6.95333,21.7886 7.4369,21.7436 8.53125,21.6562 8.58872,21.5875 8.29677,21.2276 7.875,20.875 7.45323,20.5224 7.05747,20.3063 7,20.375 Z"
   fill="#000000"
   stroke="none"
   id="path273" />
</g><path
   style="color:#000000;clip-rule:nonzero;fill:#000000;fill-rule:evenodd;stroke-miterlimit:10;-inkscape-stroke:none"
   d="m 23.191406,8.8164063 a 1,1 0 0 0 -1.005859,0.9941406 l -0.06641,10.4980471 a 1,1 0 0 0 0.99414,1.007812 1,1 0 0 0 1.00586,-0.99414 L 24.185547,9.8222656 A 1,1 0 0 0 23.191406,8.8164063 Z"
   id="path279" /><path
   style="color:#000000;clip-rule:nonzero;fill:#000000;fill-rule:evenodd;stroke-miterlimit:10;-inkscape-stroke:none"
   d="m 17.873047,14.033203 a 1,1 0 0 0 -1.001953,0.996094 1,1 0 0 0 0.996093,1.003906 l 10.466797,0.0332 a 1,1 0 0 0 1.001953,-0.998047 1,1 0 0 0 -0.996093,-1.001953 z"
   id="path282" />


</svg>
