<?xml version="1.0" encoding="UTF-8" standalone="no"?>
<!-- Created with Vectornator (http://vectornator.io/) -->

<svg
   stroke-miterlimit="10"
   style="clip-rule:evenodd;fill-rule:nonzero;stroke-linecap:round;stroke-linejoin:round"
   version="1.1"
   viewBox="0 0 30 30"
   xml:space="preserve"
   id="svg52"
   width="30"
   height="30"
   xmlns="http://www.w3.org/2000/svg"
   xmlns:svg="http://www.w3.org/2000/svg">
<defs
   id="defs2" />

<g
   opacity="1"
   id="g9">
<path
   d="m 11.0625,15.1562 c -0.0461,-0.0782 -0.4888,0.0921 -0.9687,0.375 -0.47995,0.283 -0.82742,0.5781 -0.7813,0.6563 2.6208,2.2717 4.3002,5.4972 4.875,8.9063 0.2772,1.6444 0.2844,3.3416 -0.3437,4.9062 0.0419,0.0787 0.4858,-0.0551 0.9687,-0.3125 0.4829,-0.2574 0.8232,-0.5463 0.7813,-0.625 0.3177,-0.7927 0.4897,-1.6032 0.5312,-2.4375 0.0415,-0.8343 -0.0469,-1.6979 -0.1875,-2.5312 -0.5774,-3.4223 -2.244,-6.6573 -4.875,-8.9376 z M 2.5625,0.0625 C 2.51991,-0.0163607 2.07761,0.144918 1.59375,0.40625 1.10989,0.667582 0.769908,0.921139 0.8125,1 -0.617276,5.70345 1.70782,13.2935 6.75,14.9062 6.79691,14.9831 7.21569,14.8191 7.6875,14.5312 8.15932,14.2434 8.51566,13.9519 8.46875,13.875 3.47506,12.2802 1.14619,4.7189 2.5625,0.0625 Z"
   fill="#000000"
   stroke="none"
   id="path7" />
</g><g
   opacity="1"
   id="g13">
<path
   d="m 14.7188,0.0625 c 1.2746,4.04505 -0.278,9.83816 -3.6563,12.5 -0.9583,0.7551 -1.97562,0.9991 -3.09375,1.4063 -1.08118,0.3936 -2.06643,0.9975 -2.90625,1.7812 -2.35614,2.1986 -3.99789,6.1963 -4.09375,9.8125 -0.031954,1.2054 0.09365,2.366 0.4375,3.4063 -0.0497,0.0735 0.29842,0.3825 0.75,0.6874 0.45158,0.305 0.85655,0.5112 0.90625,0.4376 -1.36555,-4.1222 0.51701,-10.2244 3.625,-13.125 0.83274,-0.7773 1.80269,-1.4223 2.875,-1.8126 1.1252,-0.4094 2.1606,-0.6151 3.125,-1.375 C 15.2468,11.7647 16.7595,7.98636 16.8125,4.5 16.8302,3.33788 16.6649,2.20786 16.3438,1.1875 16.3936,1.11392 16.0764,0.805601 15.625,0.5 15.1736,0.194399 14.7686,-0.0110753 14.7188,0.0625 Z"
   fill="#000000"
   stroke="none"
   id="path11" />
</g><g
   opacity="1"
   id="g17">
<path
   d="M 5.96875,3.25 C 4.25354,3.47375 4.48318,3.43833 4.25,3.46875 4.11406,3.48648 4.08196,3.48931 4,3.5 3.77214,3.52972 3.54036,3.56403 3.3125,3.59375 2.80531,3.65991 2.31969,3.74634 1.8125,3.8125 1.63966,3.83505 1.45409,3.85245 1.28125,3.875 1.18372,3.88772 0.902468,3.91897 1,3.90625 1.77756,3.80482 0.975065,3.89591 0.65625,3.9375 c -0.057495,0.06915 0.263205,0.42848 0.6875,0.78125 0.4243,0.35277 0.8175,0.56915 0.875,0.5 C 2.53306,5.17766 2.27541,5.22094 2.53125,5.1875 2.62549,5.17518 2.71826,5.16857 2.8125,5.15625 4.16074,4.98 5.23406,4.82398 4.84375,4.875 5.07449,4.84484 5.30051,4.81141 5.53125,4.78125 5.80737,4.74515 6.65112,4.6514 6.375,4.6875 5.87108,4.75338 6.36101,4.68015 7.5,4.53125 7.55744,4.46217 7.26762,4.13367 6.84375,3.78125 6.41988,3.42883 6.02619,3.18092 5.96875,3.25 Z"
   fill="#000000"
   stroke="none"
   id="path15" />
</g><g
   opacity="1"
   id="g21">
<path
   d="M 8.5,8.25 C 5.24599,8.71439 4.70767,8.79615 5.25,8.71875 4.70766,8.79615 3.625,8.9375 3.625,8.9375 c 0,0 0.00201,-0.01345 -1.625,0.21875 -0.05749,0.06923 0.2315,0.42854 0.65625,0.78125 0.42475,0.3527 0.81752,0.5692 0.875,0.5 1.62441,-0.2322 1.14992,-0.1508 1.625,-0.2187 0,0 1.08279,-0.1725 1.625,-0.25005 0.54221,-0.0775 1.625,-0.21875 1.625,-0.21875 0,0 -0.00162,0.01376 1.62495,-0.21875 C 10.0887,9.46209 9.79933,9.10236 9.375,8.75 8.95067,8.39764 8.55743,8.18084 8.5,8.25 Z"
   fill="#000000"
   stroke="none"
   id="path19" />
</g><g
   opacity="1"
   id="g25">
<path
   d="M 15.0312,2.3125 C 14.5942,2.35016 14.9475,2.31327 14.5938,2.34375 14.726,2.33236 14.3197,2.36361 14.1875,2.375 14.1719,2.37634 13.5156,2.43616 13.5,2.4375 12.811,2.49686 12.1265,2.56564 11.4375,2.625 11.1265,2.6518 10.811,2.6607 10.5,2.6875 10.1256,2.71976 9.00055,2.81351 9.375,2.78125 10.0584,2.72237 9.38834,2.80441 7.84375,2.9375 7.78628,3.00629 8.07794,3.33488 8.5,3.6875 c 0.42206,0.35262 0.81753,0.56879 0.875,0.5 1.5324,-0.13174 0.8886,-0.06975 1.5312,-0.125 0.3731,-0.03207 0.752,-0.06168 1.125,-0.09375 0.309,-0.02656 0.6286,-0.03594 0.9376,-0.0625 0.6877,-0.05913 1.3747,-0.12838 2.0624,-0.1875 C 15.2656,3.6986 15.4844,3.6764 15.7188,3.65625 15.851,3.64488 16.2573,3.61363 16.125,3.625 15.0706,3.71564 16.1302,3.63092 16.5625,3.59375 16.62,3.52489 16.3287,3.16547 15.9062,2.8125 15.4838,2.45953 15.0888,2.24364 15.0312,2.3125 Z"
   fill="#000000"
   stroke="none"
   id="path23" />
</g><g
   opacity="1"
   id="g29">
<path
   d="m 14.4062,7.34375 c -1.1916,0.10772 -0.9725,0.07432 -1.1874,0.09375 -0.4381,0.0396 -0.8745,0.0854 -1.3126,0.125 -0.2061,0.01863 -0.7998,0.08113 -0.5937,0.0625 0.3762,-0.03401 -0.0247,-0.01437 -0.875,0.0625 -0.0575,0.06882 0.234,0.42865 0.6563,0.78125 0.4222,0.3526 0.8175,0.56882 0.875,0.5 0.8348,-0.07518 0.4983,-0.03139 0.8437,-0.0625 -0.2062,0.01857 0.4188,-0.04393 0.625,-0.0625 0.1701,-0.01532 0.3611,-0.01593 0.5313,-0.03125 0.3782,-0.03406 0.7467,-0.09094 1.125,-0.125 0.1288,-0.0116 0.5038,-0.04285 0.375,-0.03125 C 14.9616,8.70192 15.4793,8.66626 15.9375,8.625 15.995,8.55611 15.7039,8.1967 15.2812,7.84375 14.8586,7.4908 14.4638,7.27487 14.4062,7.34375 Z"
   fill="#000000"
   stroke="none"
   id="path27" />
</g><g
   opacity="1"
   id="g33">
<path
   d="M 7,25.4375 C 5.75263,25.5507 6.27485,25.4836 5.75,25.5312 6.05561,25.5035 5.14936,25.5973 4.84375,25.625 4.59162,25.6479 4.31463,25.6646 4.0625,25.6875 3.5013,25.7384 2.96745,25.7928 2.40625,25.8438 2.21501,25.8611 2.00374,25.8889 1.8125,25.9062 1.70458,25.916 1.39208,25.9473 1.5,25.9375 c 0.86036,-0.078 0.00901,-8e-4 -0.34375,0.0313 -0.05752,0.0688 0.23357,0.397 0.65625,0.75 0.42268,0.3529 0.81748,0.6001 0.875,0.5312 C 3.03423,27.2185 2.74883,27.2444 3.03125,27.2188 3.13617,27.2092 3.23883,27.197 3.34375,27.1875 3.53494,27.1701 3.74631,27.1424 3.9375,27.125 4.1255,27.1079 4.312,27.0796 4.5,27.0625 4.86671,27.0291 5.22704,27.0021 5.59375,26.9688 5.85414,26.9451 6.11461,26.9299 6.375,26.9062 6.68053,26.8785 7.58678,26.7847 7.28125,26.8125 6.72366,26.8632 7.27094,26.8334 8.53125,26.7188 8.58872,26.6499 8.29726,26.2901 7.875,25.9375 7.45273,25.5849 7.05747,25.3687 7,25.4375 Z"
   fill="#000000"
   stroke="none"
   id="path31" />
</g><g
   opacity="1"
   id="g37">
<path
   d="M 14.3125,24.75 C 14,24.7771 14.2548,24.7591 14,24.7812 c 0.0976,-0.0084 -0.2149,0.0228 -0.3125,0.0313 -0.1657,0.0144 -0.3343,0.0169 -0.5,0.0313 -0.5979,0.0519 -1.8219,0.1502 -1.5313,0.125 -0.2279,0.0198 -0.4595,0.0426 -0.6874,0.0624 -0.2764,0.0241 -1.12013,0.0866 -0.8438,0.0626 0.5043,-0.0439 0.0148,0.0259 -1.125,0.125 -0.05747,0.0687 0.23416,0.3973 0.65625,0.75 0.42205,0.3526 0.81755,0.5687 0.87495,0.5 1.9663,-0.1703 1.9322,-0.1531 1.9688,-0.1563 0.228,-0.0197 0.4595,-0.0428 0.6875,-0.0625 0.5076,-0.044 1.0237,-0.081 1.5313,-0.125 0.1729,-0.015 0.327,-0.0475 0.5,-0.0625 0.0976,-0.0085 0.3788,-0.0085 0.2812,0 -0.7781,0.0674 0.0247,-0.0036 0.3438,-0.0313 C 15.9013,25.9624 15.61,25.603 15.1875,25.25 14.765,24.897 14.37,24.6811 14.3125,24.75 Z"
   fill="#000000"
   stroke="none"
   id="path35" />
</g><g
   opacity="1"
   id="g41">
<path
   d="M 7,20.375 C 4.45239,20.5776 3.72165,20.6219 4.46875,20.5625 3.98143,20.6013 3.48732,20.6487 3,20.6875 2.83393,20.7007 2.66607,20.7055 2.5,20.7188 2.40629,20.7262 2.12504,20.7575 2.21875,20.75 c 0.7471,-0.0594 -0.00618,0.0069 -0.3125,0.0312 -0.05753,0.0689 0.26531,0.3971 0.6875,0.75 0.42219,0.353 0.78622,0.6001 0.84375,0.5313 C 3.74848,22.0377 3.49854,22.0513 3.75,22.0312 3.84357,22.0238 3.93768,22.0075 4.03125,22 c 0.12467,-0.0099 0.25033,-0.0213 0.375,-0.0312 0.06916,-0.0056 0.09893,0.0045 0.15625,0 C 5.25822,21.9132 5.96053,21.868 6.65625,21.8125 6.92155,21.7913 7.7028,21.7288 7.4375,21.75 6.95333,21.7886 7.4369,21.7436 8.53125,21.6562 8.58872,21.5875 8.29677,21.2276 7.875,20.875 7.45323,20.5224 7.05747,20.3063 7,20.375 Z"
   fill="#000000"
   stroke="none"
   id="path39" />
</g><g
   opacity="1"
   id="g45">
<path
   d="m 13.375,19.625 c -0.2834,0.0301 -0.0499,0.0067 -0.2812,0.0312 0.0891,-0.0094 -0.1922,0.0218 -0.2813,0.0313 -0.031,0.0033 -0.0627,-0.0033 -0.0937,0 -0.1265,0.0134 -0.2486,0.0178 -0.375,0.0313 -0.4602,0.0489 -0.9149,0.1073 -1.375,0.1562 -0.2097,0.0223 -0.4154,0.0402 -0.625,0.0625 -0.2524,0.0268 -1.03366,0.1206 -0.7813,0.0937 0.4605,-0.0489 0.00972,-0.0168 -1.03125,0.0938 -0.05746,0.0689 0.23334,0.4287 0.65625,0.7812 0.42291,0.3526 0.8175,0.569 0.875,0.5 1.0241,-0.1085 0.5969,-0.0477 1.0313,-0.0937 0.2258,-0.0239 0.4616,-0.0698 0.6874,-0.0937 0.0058,-7e-4 0.0924,10e-5 0.0938,0 0.2083,-0.0221 0.4167,-0.0405 0.625,-0.0626 0.4636,-0.0491 0.9114,-0.1071 1.375,-0.1562 0.158,-0.0167 0.3108,-0.0145 0.4688,-0.0312 0.0891,-0.0095 0.3703,-0.0407 0.2812,-0.0313 -0.7107,0.0753 -0.0101,-4e-4 0.2812,-0.0313 0.0576,-0.0689 -0.2329,-0.4283 -0.6562,-0.7812 -0.4233,-0.3529 -0.8175,-0.569 -0.875,-0.5 z"
   fill="#000000"
   stroke="none"
   id="path43" />
</g><path
   style="color:#000000;clip-rule:nonzero;fill:#000000;fill-rule:evenodd;stroke-miterlimit:10;-inkscape-stroke:none"
   d="m 23.191406,8.8164063 a 1,1 0 0 0 -1.005859,0.9941406 l -0.06641,10.4980471 a 1,1 0 0 0 0.99414,1.007812 1,1 0 0 0 1.00586,-0.99414 L 24.185547,9.8222656 A 1,1 0 0 0 23.191406,8.8164063 Z"
   id="path47" /><path
   style="color:#000000;clip-rule:nonzero;fill:#000000;fill-rule:evenodd;stroke-miterlimit:10;-inkscape-stroke:none"
   d="m 17.873047,14.033203 a 1,1 0 0 0 -1.001953,0.996094 1,1 0 0 0 0.996093,1.003906 l 10.466797,0.0332 a 1,1 0 0 0 1.001953,-0.998047 1,1 0 0 0 -0.996093,-1.001953 z"
   id="path49" />


</svg>
