<?xml version="1.0" encoding="UTF-8" standalone="no"?>
<!-- Created with Vectornator (http://vectornator.io/) -->

<svg
   stroke-miterlimit="10"
   style="clip-rule:evenodd;fill-rule:nonzero;stroke-linecap:round;stroke-linejoin:round"
   version="1.1"
   viewBox="0 0 30 30"
   xml:space="preserve"
   id="svg571"
   width="30"
   height="30"
   xmlns="http://www.w3.org/2000/svg"
   xmlns:svg="http://www.w3.org/2000/svg">


<path
   d="M 9.6431,24.0122 C 9.6624,23.9235 9.22188,23.7476 8.67748,23.6292 8.13308,23.5108 7.67767,23.4913 7.65837,23.58 c 0.37971,3.4474 -0.57933,6.9552 -2.47368,9.8472 -0.91376,1.395 -2.06159,2.6453 -3.5855,3.3666 -0.02268,0.0862 0.37102,0.2684 0.90023,0.4076 0.5292,0.1392 0.99813,0.1797 1.02081,0.0934 C 5.0636,36.5632 6.22221,35.2964 7.14819,33.8824 9.04956,30.979 10.0245,27.4729 9.6431,24.0122 Z M 13.6376,7.14074 C 13.66,7.05394 13.27,6.87009 12.7374,6.73312 12.2048,6.59614 11.7389,6.55292 11.7166,6.63972 7.47199,9.11962 4.0444,16.2899 6.64854,20.8989 6.63072,20.9872 7.04948,21.1513 7.59123,21.2607 8.13297,21.37 8.59252,21.3982 8.61034,21.3099 6.02958,16.747 9.43488,9.59527 13.6376,7.14074 Z"
   fill="#000000"
   fill-rule="evenodd"
   opacity="1"
   stroke="none"
   id="path862"
   clip-path="url(#clipPath599)"
   style="display:inline"
   transform="matrix(1,0,0,1.0379999,1.0715259,-1.1510542)" /><path
   d="M 22.5805,15.4208 C 20.7677,19.255 15.6926,22.451 11.4053,22.109 10.1891,22.012 9.29804,21.477 8.20099,21.0161 7.14019,20.5704 5.98571,20.3671 4.83706,20.3716 c -3.22256,0.0125 -7.16619,1.8093 -9.69336,4.3976 -0.84239,0.8628 -1.51578,1.821 -1.97022,2.8179 -0.08647,0.0203 -0.06385,0.4622 0.06032,0.9928 0.12416,0.5306 0.28127,0.957 0.36775,0.9367 1.79857,-3.9525 7.348599,-7.1298 11.59988,-7.1467 1.13907,-0.0046 2.28904,0.1811 3.34101,0.6232 1.10381,0.464 1.98036,0.9954 3.20426,1.093 3.248,0.259 6.925,-1.4857 9.3324,-4.0079 0.8025,-0.8407 1.472,-1.7609 1.9295,-2.7279 0.0865,-0.0201 0.0633,-0.4618 -0.0603,-0.9927 -0.1236,-0.531 -0.2812,-0.9569 -0.3678,-0.9368 z"
   fill="#000000"
   fill-rule="evenodd"
   opacity="1"
   stroke="none"
   id="path865"
   clip-path="url(#clipPath595)"
   style="display:inline"
   transform="matrix(1.0489519,0,0,1,-0.05732245,-0.90045201)" /><path
   d="m 15.065926,10.914648 c -1.3349,-0.9474 -1.101,-0.7732 -1.341,-0.9435 -0.1552,-0.1101998 -0.1776,-0.1425998 -0.2734,-0.2105997 -0.1874,-0.133 -0.3808,-0.2653 -0.5682,-0.3983 -0.4171,-0.29607 -0.8339,-0.6067405 -1.251,-0.9027705 -0.1421,-0.10088 -0.2884,-0.17003 -0.4306,-0.27091 -0.0802,-0.05692 -0.3307,-0.2463 -0.25049,-0.18938 0.63949,0.45384 0.01166,-0.00329 -0.25054,-0.18938 -0.08917,0.01168 -0.1209,0.472 -0.04923,1.0191205 0.07167,0.54712 0.21319,0.9730199 0.30236,0.96132 0.6658,0.4722997 0.2967,0.2255997 0.6599,0.4831997 0.089,0.0632 0.1827,0.1033 0.2717,0.1665 0.6045,0.4288 1.2147,0.8723 1.8192,1.301 0.2271,0.1611 0.887,0.6443 0.6599,0.4832 -0.4145,-0.294 0.0176,0.0064 0.9546,0.6709 0.089,-0.0116 0.1208,-0.4725 0.0492,-1.0191 -0.0716,-0.5466 -0.2133,-0.973 -0.3024,-0.9613 z"
   fill="#000000"
   fill-rule="evenodd"
   opacity="1"
   stroke="none"
   id="path868" /><path
   d="m 13.526326,16.303248 c -1.1694,-0.809 -0.6786,-0.4854 -1.1592,-0.8179 -0.2881,-0.1992 -0.5748,-0.3867 -0.8629,-0.5859 -0.2323,-0.1607 -0.4275,-0.3225 -0.65986,-0.4832 -0.51708,-0.3577 -1.0498201,-0.7098 -1.5669001,-1.0675 -0.17621,-0.1219 -0.36903,-0.2552 -0.54524,-0.3771 -0.09943,-0.0688 -0.3729,-0.2794 -0.27346,-0.2106 0.79273,0.5484 -0.01553,-0.0053 -0.34056,-0.2301 -0.08921,0.0117 -0.09835,0.4929 -0.02631,1.0403 0.07205,0.5474 0.21315,0.9731 0.30236,0.9614 0.6221,0.4301 0.20968,0.1611 0.61403,0.4407 0.1762,0.1218 0.3461,0.234 0.5223,0.3558 0.7493601,0.5182 1.5216001,1.0309 2.2709401,1.549 0.2816,0.1947 1.1003,0.7824 0.8187,0.5877 -0.5139,-0.3553 0.019,-0.0082 1.1805,0.7949 0.0891,-0.0117 0.1,-0.4494 0.028,-0.9962 -0.072,-0.5468 -0.2132,-0.9731 -0.3024,-0.9613 z"
   fill="#000000"
   fill-rule="evenodd"
   opacity="1"
   stroke="none"
   id="path871" /><path
   d="m 22.352726,16.383648 c -0.3463,-0.2692 -0.062,-0.0563 -0.3422,-0.2743 0.1047,0.0815 -0.2146,-0.1716 -0.3194,-0.253 -0.1856,-0.1444 -0.3613,-0.2769 -0.5469,-0.4213 -0.5459,-0.4245 -1.0949,-0.8391 -1.6408,-1.2636 -0.2464,-0.1916 -0.484,-0.3995 -0.7304,-0.5911 -0.2967,-0.2307 -1.1859,-0.9262 -0.8892,-0.6955 0.5415,0.4211 0.0153,0.0031 -1.2085,-0.9486 -0.0889,0.0114 -0.1194,0.4736 -0.0492,1.0191 0.0701,0.5455 0.1905,0.9516 0.2794,0.9401 1.227,0.9547 0.7242,0.5752 1.2315,0.9699 0.2951,0.2296 0.594,0.4659 0.8891,0.6955 0.2448,0.1904 0.5069,0.3777 0.7516,0.5681 0.5449,0.4239 1.0748,0.8627 1.6196,1.2866 0.1857,0.1445 0.3613,0.2768 0.5469,0.4212 0.1048,0.0815 0.4241,0.3346 0.3194,0.2531 -0.8353,-0.6498 -2e-4,0.0079 0.3422,0.2743 0.089,-0.0114 0.0965,-0.4943 0.0263,-1.0403 -0.0702,-0.5461 -0.1904,-0.9516 -0.2794,-0.9402 z"
   fill="#000000"
   fill-rule="evenodd"
   opacity="1"
   stroke="none"
   id="path874" /><path
   d="m 18.475926,19.650848 c -1.049,-0.8087 -2.0967,-1.6353 -3.1457,-2.4441 -0.0889,0.0115 -0.1195,0.4735 -0.0492,1.0191 0.0702,0.5456 0.2134,0.9728 0.3023,0.9614 1.0491,0.8094 2.0966,1.6347 3.1457,2.4441 0.089,-0.0115 0.0967,-0.4942 0.0263,-1.0404 -0.0703,-0.5461 -0.1904,-0.9515 -0.2794,-0.9401 z"
   fill="#000000"
   fill-rule="evenodd"
   opacity="1"
   stroke="none"
   id="path877" /><path
   d="m -0.32286,28.7963 c -2.33359,-1.7979 -2.71424,-2.1119 -2.32531,-1.8122 -0.38894,-0.2997 -1.16266,-0.9062 -1.16266,-0.9062 0,0 -0.01709,0.0158 -1.18389,-0.8832 -0.08901,0.0115 -0.09837,0.4501 -0.028,0.9962 0.07036,0.5462 0.21335,0.9728 0.30235,0.9614 1.16674,0.8984 0.82236,0.644 1.16266,0.9061 0,0 0.77375,0.6066 1.16266,0.9061 0.38891,0.2995 1.16266,0.9062 1.16266,0.9062 0,0 0.01715,-0.0153 1.1838839,0.8832 0.0889246,-0.0115 0.0982937,-0.4506 0.0280035,-0.9962 C -0.090798,29.2121 -0.233936,28.7849 -0.32286,28.7963 Z"
   fill="#000000"
   fill-rule="evenodd"
   opacity="1"
   stroke="none"
   id="path560"
   clip-path="url(#clipPath591)"
   style="display:none" /><path
   d="M 5.48703,33.2387 C 5.18659,33.0054 5.42418,33.1882 5.19063,33.0068 5.16166,32.9843 5.09029,32.9049 5.03012,32.8582 4.89303,32.7518 4.73492,32.6496 4.59784,32.5432 4.40625,32.3944 4.21955,32.2495 4.02797,32.1007 3.81963,31.9389 3.62059,31.7776 3.41225,31.6158 3.22893,31.4734 3.04863,31.3369 2.86531,31.1946 2.64625,31.0245 1.98466,30.4971 2.20373,30.6672 c 0.3998,0.3105 0.01447,0.0062 -0.88919,-0.6955 -0.08891,0.0114 -0.11939,0.4736 -0.04924,1.0191 0.07016,0.5455 0.21345,0.9728 0.30236,0.9613 0.90137,0.7004 0.51395,0.404 0.88919,0.6956 0.22473,0.1746 0.43686,0.3527 0.66159,0.5273 0.18074,0.1405 0.34326,0.2596 0.524,0.4 0.40231,0.3126 0.80621,0.636 1.20852,0.9486 0.1371,0.1066 0.29518,0.2086 0.43228,0.3151 0.07736,0.0601 0.30497,0.2283 0.2276,0.1681 C 4.89407,34.5276 5.48726,35.0227 5.74015,35.2192 5.82914,35.2077 5.85961,34.7461 5.78938,34.2 5.71916,33.654 5.57602,33.2272 5.48703,33.2387 Z"
   fill="#000000"
   fill-rule="evenodd"
   opacity="1"
   stroke="none"
   id="path562"
   clip-path="url(#clipPath587)"
   style="display:none" /><path
   d="m 4.1880859,24.181148 c -2.00701,-1.5822 -2.573319,-2.0461 -1.98476,-1.5821 -0.383905,-0.3027 -0.778741,-0.6035 -1.1626522,-0.9062 -0.13082781,-0.1031 -0.25729181,-0.2136 -0.38811881,-0.3167 -0.073826,-0.0582 -0.301431,-0.2264 -0.227605,-0.1682 0.58856291,0.464 -0.009214,9e-4 -0.250536,-0.1894 -0.088964,0.0114 -0.097982,0.4504 -0.028004,0.9962 0.069977,0.5459 0.192167,0.9957 0.281127,0.9843 0.245046,0.1931 0.052386,0.0333 0.250536,0.1894 0.073735,0.0581 0.15387,0.11 0.227605,0.1681 0.25294321,0.1993 0.23691091,0.1977 0.38811901,0.3168 0.556352,0.4383 1.130309,0.8678 1.686659,1.3061 0.20905,0.1647 0.82477,0.6496 0.61572,0.4849 -0.38151,-0.3006 -0.0173,0.0178 0.84503,0.6973 0.08888,-0.0114 0.11914,-0.4738 0.04924,-1.0192 -0.06991,-0.5453 -0.21348,-0.9727 -0.30236,-0.9613 z"
   fill="#000000"
   fill-rule="evenodd"
   opacity="1"
   stroke="none"
   id="path880"
   style="display:inline" /><path
   d="m 9.3754459,27.961948 c -0.25026,-0.1868 -0.05045,-0.0401 -0.25053,-0.1894 0.01182,0.0088 -0.1196,-0.1222 -0.18345,-0.1698 -0.12728,-0.095 -0.25913,-0.1777 -0.38641,-0.2726 -0.37381,-0.279 -0.76423,-0.5619 -1.13803,-0.8408 -0.16642,-0.1242 -0.33465,-0.2546 -0.50107,-0.3787 -0.2034,-0.1518 -0.79619,-0.6155 -0.5928,-0.4637 0.3712,0.2769 -0.00262,0.0171 -0.84163,-0.6089 -0.08899,0.0115 -0.09881,0.4501 -0.028,0.9962 0.07081,0.546 0.19214,0.9958 0.28113,0.9842 1.44573,1.0794 1.40636,1.0517 1.43442,1.0726 0.16781,0.1253 0.33326,0.2535 0.50107,0.3788 0.37353,0.2789 0.7645,0.5618 1.13803,0.8407 0.12729,0.0951 0.25913,0.1776 0.38642,0.2726 0.07183,0.0537 0.29944,0.2218 0.2276,0.1682 -0.57264,-0.4276 -0.00719,-0.0072 0.22761,0.1681 0.08908,-0.0115 0.09888,-0.4496 0.028,-0.9962 -0.07088,-0.5465 -0.21328,-0.9729 -0.30236,-0.9613 z"
   fill="#000000"
   fill-rule="evenodd"
   opacity="1"
   stroke="none"
   id="path883" /><path
   style="color:#000000;clip-rule:nonzero;fill:#000000;fill-rule:evenodd;stroke-miterlimit:10;-inkscape-stroke:none"
   d="M 20.259026,0.83782888 A 1.0001,1.0001 0 0 0 20.106682,2.8319697 l 5.230469,0.3964843 -7.021484,6.3789073 a 1,1 0 0 0 -0.06641,1.4121087 1,1 0 0 0 1.41211,0.06836 l 7.251953,-6.5898437 0.449219,5.001954 A 1,1 0 0 0 28.446523,10.40619 1,1 0 0 0 29.354726,9.3202523 L 28.725823,2.3163447 A 1.0001,1.0001 0 0 0 28.651603,2.2440787 1.0001,1.0001 0 0 0 27.8059,1.4100943 Z"
   id="path886" />


</svg>
