<?xml version="1.0" encoding="UTF-8" standalone="no"?>
<!-- Created with Vectornator (http://vectornator.io/) -->

<svg
   stroke-miterlimit="10"
   style="clip-rule:evenodd;fill-rule:nonzero;stroke-linecap:round;stroke-linejoin:round"
   version="1.1"
   viewBox="0 0 30 30"
   xml:space="preserve"
   id="svg1667"
   sodipodi:docname="mutate-nucleotide.svg"
   width="30"
   height="30"
   inkscape:export-filename="path-only\mutate-nucleotide.svg"
   inkscape:export-xdpi="96"
   inkscape:export-ydpi="96"
   xmlns:inkscape="http://www.inkscape.org/namespaces/inkscape"
   xmlns:sodipodi="http://sodipodi.sourceforge.net/DTD/sodipodi-0.dtd"
   xmlns="http://www.w3.org/2000/svg"
   xmlns:svg="http://www.w3.org/2000/svg"><sodipodi:namedview
   id="namedview1669"
   pagecolor="#ffffff"
   bordercolor="#000000"
   borderopacity="0.25"
   inkscape:showpageshadow="2"
   inkscape:pageopacity="0.0"
   inkscape:pagecheckerboard="0"
   inkscape:deskcolor="#d1d1d1"
   showgrid="false" />
<path
   clip-path="url(#TextBounds)"
   d="M 6.5475,0.598306 11.0665,10.8302 H 8.97914 L 7.91713,8.34001 H 3.36879 L 2.38002,10.8302 H 0.307264 L 4.52601,0.598306 Z M 3.96937,6.83854 H 7.2726 L 5.54408,2.78825 Z"
   fill="#000000"
   fill-rule="evenodd"
   opacity="1"
   stroke="none"
   id="path1658" /><path
   clip-path="url(#TextBounds_2)"
   d="m 24.9876,18.7793 c 1.2597,0 2.5097,0.2808 3.75,0.8423 v 1.8091 c -1.2403,-0.6299 -2.461,-0.9449 -3.6622,-0.9449 -0.747,0 -1.4111,0.149 -1.9921,0.4468 -0.5811,0.2979 -1.0315,0.7263 -1.3514,1.2854 -0.3198,0.5591 -0.4797,1.1829 -0.4797,1.8714 0,1.0449 0.3479,1.8859 1.0437,2.5231 0.6958,0.6373 1.6126,0.9559 2.7502,0.9559 0.3125,0 0.6116,-0.0269 0.8973,-0.0806 0.2856,-0.0537 0.6262,-0.1563 1.0217,-0.3076 V 25.481 h -1.6919 v -1.5455 h 3.6694 v 4.2188 c -0.5029,0.3516 -1.1071,0.6262 -1.8127,0.824 -0.7056,0.1977 -1.4392,0.2966 -2.2009,0.2966 -1.0791,0 -2.0569,-0.2222 -2.9334,-0.6665 -0.8765,-0.4443 -1.56,-1.0669 -2.0508,-1.8677 -0.4907,-0.8008 -0.7361,-1.6943 -0.7361,-2.6806 0,-1.001 0.2478,-1.9068 0.7435,-2.7173 0.4956,-0.8106 1.1865,-1.4405 2.0727,-1.8897 0.8862,-0.4492 1.8738,-0.6738 2.9627,-0.6738 z"
   fill="#000000"
   fill-rule="evenodd"
   opacity="1"
   stroke="none"
   id="path1660" /><path
   style="color:#000000;clip-rule:nonzero;fill:#000000;fill-rule:evenodd;stroke-width:0.859202;stroke-miterlimit:10;-inkscape-stroke:none"
   d="m 15.310098,3.5961927 c -1.289668,0.030578 -2.152766,0.183579 -2.152766,0.183579 a 0.87966189,0.8392183 0 0 0 -0.713008,0.9736244 0.87966189,0.8392183 0 0 0 1.020545,0.6785866 c 0,0 3.158033,-0.5104083 6.040804,0.3245415 1.441385,0.417475 2.774719,1.1460563 3.692174,2.402918 0.725825,0.9943377 1.086959,2.5099198 1.108168,4.4206478 l -2.108095,-1.18015 -0.0086,-0.005 -0.01203,-0.0065 a 0.87974986,0.83930223 0 0 0 -0.901998,1.440768 l 0.01203,0.0065 3.484287,2.022647 a 0.87974986,0.83930223 0 0 0 0.915741,-0.05901 0.87974986,0.83930223 0 0 0 0.03436,0 l 2.91388,-1.724331 a 0.87966189,0.8392183 0 0 0 0.283486,-1.155564 0.87966189,0.8392183 0 0 0 -1.211254,-0.270451 l -1.664829,0.985098 C 26.02914,10.395549 25.600545,8.5133936 24.641042,7.1989307 23.44685,5.5629548 21.719615,4.6431518 20.017663,4.1502079 18.315712,3.6572641 16.599765,3.5656152 15.310098,3.5961927 Z"
   id="path1662" /><path
   style="color:#000000;clip-rule:nonzero;fill:#000000;fill-rule:evenodd;stroke-width:0.885275;stroke-miterlimit:10;-inkscape-stroke:none"
   d="m 5.2496548,13.178915 a 0.90057416,0.87041047 0 0 0 -0.07035,0.09859 0.90057416,0.87041047 0 0 0 -0.035176,0 l -2.9828536,1.788243 a 0.90048411,0.87032344 0 0 0 -0.2901951,1.196694 0.90048411,0.87032344 0 0 0 1.2399244,0.282176 l 1.6637851,-0.997813 c -0.026306,2.30238 0.3003378,4.257731 1.0869125,5.679201 0.9827208,1.775937 2.4612943,2.888898 3.9431357,3.545887 2.9636832,1.31398 6.0237462,0.92642 6.0237462,0.92642 a 0.90048411,0.87032344 0 0 0 0.784406,-0.970616 0.90048411,0.87032344 0 0 0 -1.002493,-0.758133 c 0,0 -2.647596,0.28697 -5.05467,-0.780231 C 9.3522908,22.655734 8.2294968,21.813909 7.4498611,20.404979 6.8272841,19.279881 6.5364724,17.615405 6.5599295,15.560406 l 2.1914126,1.24259 0.0088,0.0051 0.012311,0.0068 a 0.90057416,0.87041047 0 0 0 0.9233437,-1.494193 l -0.01231,-0.0068 -3.5667615,-2.097615 a 0.90057416,0.87041047 0 0 0 -0.8670705,-0.03737 z"
   id="path1664" />
</svg>
