<?xml version="1.0" encoding="UTF-8" standalone="no"?>
<!-- Created with Vectornator (http://vectornator.io/) -->

<svg
   stroke-miterlimit="10"
   style="clip-rule:evenodd;fill-rule:nonzero;stroke-linecap:round;stroke-linejoin:round"
   version="1.1"
   viewBox="0 0 30 30"
   xml:space="preserve"
   id="svg2233"
   sodipodi:docname="mutate-amino-acid.svg"
   width="30"
   height="30"
   xmlns:inkscape="http://www.inkscape.org/namespaces/inkscape"
   xmlns:sodipodi="http://sodipodi.sourceforge.net/DTD/sodipodi-0.dtd"
   xmlns="http://www.w3.org/2000/svg"
   xmlns:svg="http://www.w3.org/2000/svg"><sodipodi:namedview
   id="namedview2235"
   pagecolor="#ffffff"
   bordercolor="#000000"
   borderopacity="0.25"
   inkscape:showpageshadow="2"
   inkscape:pageopacity="0.0"
   inkscape:pagecheckerboard="0"
   inkscape:deskcolor="#d1d1d1"
   showgrid="false" />
<path
   clip-path="url(#TextBounds)"
   d="m 3.93815,0.0482826 c 0.38737,0 0.7666,0.0439453 1.13769,0.1318364 0.3711,0.08789 0.77149,0.23763 1.20117,0.449218 V 1.86957 C 5.85709,1.62869 5.46891,1.45453 5.11246,1.34711 4.75602,1.23969 4.38411,1.18598 3.99674,1.18598 3.51172,1.18598 3.07389,1.28608 2.68326,1.48627 2.29264,1.68647 1.98909,1.96886 1.77262,2.33344 1.55615,2.69802 1.44791,3.1033 1.44791,3.54926 c 0,0.45573 0.10743,0.86426 0.32227,1.22559 0.21484,0.36132 0.51758,0.64046 0.9082,0.8374 0.39063,0.19694 0.83008,0.29541 1.31836,0.29541 0.37435,0 0.73161,-0.05371 1.07178,-0.16114 C 5.40869,5.6391 5.83756,5.44542 6.35514,5.16547 V 6.4057 C 5.91243,6.63682 5.50553,6.80121 5.13444,6.89887 4.76334,6.99652 4.3304,7.04535 3.83561,7.04535 3.11621,7.04535 2.4733,6.90212 1.9069,6.61567 1.34049,6.32921 0.895342,5.91661 0.571449,5.37787 0.247555,4.83914 0.0856087,4.24913 0.0856087,3.60785 0.0856087,2.921 0.252438,2.30414 0.586097,1.75727 0.919756,1.21039 1.37874,0.788843 1.96305,0.492619 2.54736,0.196395 3.20573,0.0482826 3.93815,0.0482826 Z"
   fill-rule="evenodd"
   id="path2290"
   style="fill:#000000;stroke:none" /><path
   clip-path="url(#TextBounds)"
   d="M 8.49869,0.136173 10.1491,2.41645 11.819,0.136173 h 1.5674 L 10.8083,3.57856 v 3.3789 H 9.48991 V 3.56879 L 6.89713,0.136173 Z"
   fill-rule="evenodd"
   id="path2293"
   style="fill:#000000;stroke:none" /><path
   clip-path="url(#TextBounds)"
   d="m 16.1598,0.0482826 c 0.6641,0 1.3037,0.1660154 1.919,0.4980464 V 1.7182 c -0.7064,-0.42643 -1.333,-0.63964 -1.8799,-0.63964 -0.332,0 -0.5916,0.06429 -0.7788,0.19287 -0.1872,0.12858 -0.2808,0.30029 -0.2808,0.51513 0,0.25717 0.1742,0.4948 0.5225,0.71289 0.0976,0.06511 0.4736,0.2474 1.1279,0.54688 0.5599,0.26367 0.9636,0.55664 1.2109,0.87891 0.2474,0.32226 0.3711,0.70963 0.3711,1.16211 0,0.58593 -0.2107,1.05875 -0.6323,1.41845 -0.4215,0.3597 -0.9676,0.53955 -1.6382,0.53955 -0.4362,0 -0.8113,-0.04801 -1.1255,-0.14404 C 14.6616,6.80528 14.3092,6.64008 13.9186,6.4057 V 5.10688 c 0.7292,0.60547 1.416,0.9082 2.0606,0.9082 0.3222,0 0.5826,-0.06999 0.7812,-0.20996 0.1986,-0.13998 0.2979,-0.32552 0.2979,-0.55664 0,-0.31576 -0.1726,-0.57292 -0.5176,-0.77149 C 16.2542,4.32074 15.8848,4.13357 15.4323,3.91547 14.8952,3.67133 14.494,3.3865 14.2287,3.06098 13.9634,2.73546 13.8307,2.35785 13.8307,1.92817 c 0,-0.57292 0.2132,-1.029464 0.6397,-1.369633 0.4264,-0.34017 0.9896,-0.5102544 1.6894,-0.5102544 z"
   fill-rule="evenodd"
   id="path2296"
   style="fill:#000000;stroke:none" /><path
   clip-path="url(#TextBounds_2)"
   d="m 14.0281,22.8883 3.0127,6.8213 h -1.3916 l -0.708,-1.6602 H 11.909 l -0.6592,1.6602 H 9.86797 l 2.81253,-6.8213 z m -1.7187,4.1601 h 2.2021 l -1.1523,-2.7002 z"
   fill-rule="evenodd"
   id="path2299"
   style="fill:#000000;stroke:none" /><path
   clip-path="url(#TextBounds_2)"
   d="m 19.16,22.8883 v 5.791 h 3.3105 v 1.0303 h -4.6289 v -6.8213 z"
   fill-rule="evenodd"
   id="path2302"
   style="fill:#000000;stroke:none" /><path
   clip-path="url(#TextBounds_2)"
   d="m 26.8309,22.8883 3.0127,6.8213 H 28.452 l -0.708,-1.6602 h -3.0323 l -0.6592,1.6602 h -1.3818 l 2.8125,-6.8213 z m -1.7188,4.1601 h 2.2022 l -1.1524,-2.7002 z"
   fill-rule="evenodd"
   id="path2305"
   style="fill:#000000;stroke:none" /><path
   style="color:#000000;clip-rule:nonzero;fill:#000000;fill-rule:evenodd;stroke-miterlimit:10;-inkscape-stroke:none"
   d="M 6.5527344,9.3144531 A 1,1 0 0 0 5.3085937,9.9882813 c 0,0 -0.4333256,1.5192787 -0.035156,3.6249997 0.3222552,1.704249 1.4677991,3.87376 3.4160156,6.083985 l -2.7539062,0.289062 a 1,1 0 0 0 -0.8886719,1.097656 1,1 0 0 0 1.0976562,0.890625 l 4.6269526,-0.484375 a 1.0001,1.0001 0 0 0 0.08203,-0.07813 1.0001,1.0001 0 0 0 0.669922,-0.648437 1.0001,1.0001 0 0 0 0.134765,-0.13086 l 0.582031,-4.205078 a 1.0003075,1.0003075 0 0 0 -1.980468,-0.283203 l -0.002,0.0078 -0.01367,0.103515 -0.2773439,1.892578 C 8.4042463,16.301742 7.4873698,14.559494 7.2382812,13.242188 6.9165789,11.540863 7.2265625,10.556641 7.2265625,10.556641 A 1,1 0 0 0 6.5527344,9.3144531 Z"
   id="path2308" /><path
   style="color:#000000;clip-rule:nonzero;fill:#000000;fill-rule:evenodd;stroke-miterlimit:10;-inkscape-stroke:none"
   d="m 24.921875,8.6894531 -5.597656,0.066406 A 1.0001,1.0001 0 0 0 19.201172,8.8710938 1.0001,1.0001 0 0 0 18.337891,9.6933594 L 18.015625,14.9375 a 1.0001,1.0001 0 0 0 1.996094,0.125 l 0.167968,-2.720703 c 1.444688,1.805432 2.341828,3.551438 2.601563,4.925781 0.348414,1.843571 0.05078,2.984375 0.05078,2.984375 a 1,1 0 0 0 0.72461,1.212891 1,1 0 0 0 1.214843,-0.72461 c 0,0 0.396549,-1.621467 -0.02344,-3.84375 -0.33267,-1.760264 -1.472025,-3.962435 -3.34375,-6.166015 l 3.541015,-0.04102 A 1,1 0 0 0 25.933594,9.6777344 1,1 0 0 0 24.921875,8.6894531 Z"
   id="path2311" />
</svg>
