<?xml version="1.0" encoding="UTF-8" standalone="no"?>
<!-- Created with Vectornator (http://vectornator.io/) -->

<svg
   height="30"
   stroke-miterlimit="10"
   style="clip-rule:evenodd;fill-rule:nonzero;stroke-linecap:round;stroke-linejoin:round"
   version="1.1"
   viewBox="0 0 30 30"
   width="30"
   xml:space="preserve"
   id="svg1182"
   xmlns="http://www.w3.org/2000/svg"
   xmlns:svg="http://www.w3.org/2000/svg">


<path
   d="M 31.7495,27.8951 C 27.3658,29.1791 21.0792,27.6398 18.184,24.2676 17.3627,23.311 17.0955,22.2943 16.6512,21.1771 16.2216,20.0968 15.5642,19.113 14.7122,18.275 12.3219,15.9239 7.98226,14.2914 4.06018,14.2038 2.75282,14.1746 1.49447,14.3029 0.367153,14.6491 0.28721,14.5996 -0.0469661,14.9484 -0.376579,15.4007 -0.706194,15.853 -0.928741,16.2584 -0.848793,16.308 3.61837,14.9329 10.2409,16.8015 13.3945,19.9028 c 0.8449,0.8309 1.5469,1.7994 1.9728,2.8708 0.4469,1.1242 0.6725,2.1592 1.499,3.1218 2.1934,2.5547 6.2948,4.0587 10.0759,4.1037 1.2604,0.015 2.4855,-0.1529 3.5913,-0.4764 0.0799,0.0496 0.4135,-0.2682 0.7438,-0.7203 0.3303,-0.4522 0.5522,-0.8576 0.4722,-0.9073 z"
   fill="#000000"
   fill-rule="evenodd"
   opacity="1"
   stroke="none"
   id="path1351"
   clip-path="url(#clipPath1201)"
   transform="translate(0,-2.59e-4)" /><path
   d="m 28.4241,25.377741 c 0,0 -0.0573,-1.4415 -0.0728,-2.1769 -0.0156,-0.7354 -0.073,-2.2188 -0.073,-2.2188 0,0 0.0387,-0.0127 -0.0079,-2.2189 -0.1423,-0.0768 -0.8909,0.3201 -1.6233,0.8816 -0.7324,0.5615 -1.1789,1.097 -1.0367,1.1738 0.0919,4.4133 0.0961,5.1313 0.0807,4.3958 0.0154,0.7355 0.073,2.2188 0.073,2.2188 0,0 -0.038,0.0122 0.008,2.2189 0.1423,0.0769 0.8901,-0.3195 1.6232,-0.8816 0.7332,-0.5621 1.1791,-1.0969 1.0367,-1.1738 -0.047,-2.227 0.0056,-1.5816 -0.0079,-2.2189 z"
   fill="#000000"
   fill-rule="evenodd"
   opacity="1"
   stroke="none"
   id="path1354" /><path
   d="m 20.132,24.522541 c -0.0781,-3.1353 -0.0669,-3.5998 -0.0562,-3.1709 -0.0106,-0.4268 -0.041,-0.851 -0.0517,-1.2778 -0.0106,-0.4288 -0.0069,0.0031 -0.053,-1.8457 -0.1065,-0.0869 -0.6177,0.3608 -1.1655,0.9965 -0.5479,0.6357 -0.882,1.2401 -0.7755,1.3269 0.0771,3.1365 0.0606,3.3111 0.056,3.1236 0.0047,0.1896 -0.0033,0.3784 0.0014,0.568 0.0046,0.1875 -0.0086,-0.0183 0.0547,2.5556 0.1066,0.087 0.6658,-0.3603 1.2142,-0.9966 0.5484,-0.6363 0.8822,-1.1927 0.7756,-1.2796 z"
   fill="#000000"
   fill-rule="evenodd"
   opacity="1"
   stroke="none"
   id="path1357" /><path
   d="m 5.79207,22.953541 c -0.16176,-1.8566 -0.06665,-1.0794 -0.13471,-1.8606 0.03963,0.4549 -0.09399,-0.8939 -0.13362,-1.3488 -0.03269,-0.3753 -0.05694,-0.7876 -0.08964,-1.1628 -0.07278,-0.8353 -0.15038,-1.6299 -0.22316,-2.4652 -0.0248,-0.2846 -0.06424,-0.599 -0.08904,-0.8837 -0.014,-0.1606 -0.05858,-0.6257 -0.04457,-0.4651 0.11157,1.2806 0.00107,0.0134 -0.04468,-0.5116 -0.09623,-0.0854 -0.55283,0.3491 -1.04356,0.9795 -0.49073,0.6305 -0.8341,1.219 -0.73788,1.3045 0.04508,0.516 0.00796,0.0912 0.04468,0.5116 0.01364,0.1561 0.03093,0.3089 0.04457,0.4651 0.02486,0.2846 0.06418,0.5991 0.08904,0.8837 0.02444,0.2798 0.0645,0.5574 0.08894,0.8372 0.04768,0.5458 0.08654,1.0821 0.13422,1.6279 0.03385,0.3876 0.05579,0.7753 0.08964,1.1629 0.03973,0.4547 0.17334,1.8035 0.13362,1.3488 -0.0725,-0.8299 -0.02915,-0.0153 0.13471,1.8605 0.09614,0.0853 0.59688,-0.3498 1.08714,-0.9796 0.49024,-0.6298 0.79044,-1.219 0.6943,-1.3043 z"
   fill="#000000"
   fill-rule="evenodd"
   opacity="1"
   stroke="none"
   id="path1360" /><path
   d="m 13.0947,24.367441 c -0.3466,-3.9202 -0.3792,-4.5485 -0.3214,-3.8951 -0.0578,-0.6534 -0.2128,-1.9715 -0.2128,-1.9715 0,0 0.0125,-0.0115 -0.1607,-1.9716 -0.1147,-0.0883 -0.6591,0.4097 -1.2445,1.0608 -0.5853,0.651 -0.9947,1.2121 -0.88,1.3004 0.1736,1.9576 0.11,1.3995 0.1607,1.9717 0,0 0.1548,1.3183 0.2128,1.9714 0.0579,0.6532 0.1608,1.9717 0.1608,1.9717 0,0 -0.0132,-0.0361 0.1606,1.9235 0.1145,0.0882 0.7118,-0.3624 1.2965,-1.0128 0.5847,-0.6504 0.9425,-1.2603 0.828,-1.3485 z"
   fill="#000000"
   fill-rule="evenodd"
   opacity="1"
   stroke="none"
   id="path1363" /><path
   clip-path="url(#TextBounds)"
   d="M 4.99137,0.558149 8.00406,7.37944 H 6.61246 L 5.90445,5.71928 H 2.87223 L 2.21305,7.37944 H 0.83121 L 3.64371,0.558149 Z M 3.27262,4.71831 H 5.47476 L 4.32242,2.01811 Z"
   fill-rule="evenodd"
   id="path1339"
   style="fill:#000000;stroke:none"
   transform="translate(0,-2.59e-4)" /><path
   clip-path="url(#TextBounds)"
   d="M 14.464,0.558149 V 1.58842 H 12.0421 V 7.37944 H 10.7238 V 1.58842 H 8.30191 V 0.558149 Z"
   fill-rule="evenodd"
   id="path1342"
   style="fill:#000000;stroke:none"
   transform="translate(0,-2.59e-4)" /><path
   clip-path="url(#TextBounds)"
   d="m 19.0441,0.470259 c 0.3874,0 0.7666,0.043945 1.1377,0.131836 0.3711,0.08789 0.7715,0.23763 1.2012,0.449215 V 2.29155 C 20.963,2.05066 20.5749,1.87651 20.2184,1.76909 19.862,1.66166 19.4901,1.60795 19.1027,1.60795 c -0.485,0 -0.9229,0.1001 -1.3135,0.3003 -0.3906,0.20019 -0.6942,0.48258 -0.9106,0.84716 -0.2165,0.36459 -0.3247,0.76986 -0.3247,1.21583 0,0.45572 0.1074,0.86425 0.3222,1.22558 0.2149,0.36133 0.5176,0.64046 0.9082,0.8374 0.3907,0.19694 0.8301,0.29541 1.3184,0.29541 0.3743,0 0.7316,-0.05371 1.0718,-0.16113 0.3401,-0.10742 0.769,-0.30111 1.2866,-0.58105 V 6.82768 C 21.0184,7.0588 20.6115,7.22319 20.2404,7.32084 19.8693,7.4185 19.4364,7.46733 18.9416,7.46733 18.2222,7.46733 17.5793,7.3241 17.0129,7.03764 16.4464,6.75118 16.0013,6.33859 15.6774,5.79985 15.3535,5.26111 15.1916,4.6711 15.1916,4.02983 c 0,-0.68685 0.1668,-1.30371 0.5005,-1.85059 0.3336,-0.54687 0.7926,-0.96842 1.3769,-1.264645 0.5843,-0.296224 1.2427,-0.444336 1.9751,-0.444336 z"
   fill-rule="evenodd"
   id="path1345"
   style="fill:#000000;stroke:none"
   transform="translate(0,-2.59e-4)" /><path
   clip-path="url(#TextBounds)"
   d="m 26.2951,0.470259 c 0.8398,0 1.6732,0.187174 2.5,0.561521 V 2.23784 C 27.9683,1.81791 27.1545,1.60795 26.3537,1.60795 c -0.4981,0 -0.9408,0.09929 -1.3282,0.29786 -0.3873,0.19856 -0.6876,0.48421 -0.9008,0.85693 -0.2132,0.37272 -0.3199,0.78857 -0.3199,1.24756 0,0.69661 0.232,1.25732 0.6958,1.68213 0.4639,0.4248 1.0751,0.6372 1.8335,0.6372 0.2084,0 0.4078,-0.0179 0.5982,-0.05371 0.1904,-0.0358 0.4175,-0.10416 0.6811,-0.20508 V 4.93803 H 26.4855 V 3.90776 h 2.4463 v 2.8125 c -0.3353,0.23437 -0.7381,0.41748 -1.2085,0.54932 -0.4704,0.13183 -0.9595,0.19775 -1.4673,0.19775 -0.7194,0 -1.3712,-0.14811 -1.9556,-0.44434 -0.5843,-0.29622 -1.04,-0.71126 -1.3671,-1.24511 -0.3272,-0.53386 -0.4908,-1.12956 -0.4908,-1.78711 0,-0.66732 0.1652,-1.27116 0.4956,-1.81153 0.3304,-0.54036 0.7911,-0.96028 1.3819,-1.259763 0.5908,-0.299479 1.2492,-0.449218 1.9751,-0.449218 z"
   fill-rule="evenodd"
   id="path1348"
   style="display:inline;fill:#000000;stroke:none"
   transform="translate(0,-2.59e-4)" />


</svg>
