<?xml version="1.0" encoding="UTF-8" standalone="no"?>
<!DOCTYPE svg PUBLIC "-//W3C//DTD SVG 1.1//EN" "http://www.w3.org/Graphics/SVG/1.1/DTD/svg11.dtd"
[
<!ATTLIST g
  xmlns:vectornator CDATA #FIXED "http://vectornator.io"
  vectornator:layerName CDATA #IMPLIED >
<!ATTLIST g
  xmlns:vectornator CDATA #FIXED "http://vectornator.io"
  vectornator:mask CDATA #IMPLIED >
<!ATTLIST text
  xmlns:vectornator CDATA #FIXED "http://vectornator.io"
  vectornator:width CDATA #IMPLIED >

<!ATTLIST path
  xmlns:vectornator CDATA #FIXED "http://vectornator.io"
  vectornator:blendMode CDATA #IMPLIED >
<!ATTLIST path
  xmlns:vectornator CDATA #FIXED "http://vectornator.io"
  vectornator:shadowColor CDATA #IMPLIED >
<!ATTLIST path
  xmlns:vectornator CDATA #FIXED "http://vectornator.io"
  vectornator:shadowOpacity CDATA #IMPLIED >
<!ATTLIST path
  xmlns:vectornator CDATA #FIXED "http://vectornator.io"
  vectornator:shadowRadius CDATA #IMPLIED >
<!ATTLIST path
  xmlns:vectornator CDATA #FIXED "http://vectornator.io"
  vectornator:shadowOffset CDATA #IMPLIED >
<!ATTLIST path
  xmlns:vectornator CDATA #FIXED "http://vectornator.io"
  vectornator:shadowAngle CDATA #IMPLIED >

<!ATTLIST image
  xmlns:vectornator CDATA #FIXED "http://vectornator.io"
  vectornator:blendMode CDATA #IMPLIED >
<!ATTLIST image
  xmlns:vectornator CDATA #FIXED "http://vectornator.io"
  vectornator:shadowColor CDATA #IMPLIED >
<!ATTLIST image
  xmlns:vectornator CDATA #FIXED "http://vectornator.io"
  vectornator:shadowOpacity CDATA #IMPLIED >
<!ATTLIST image
  xmlns:vectornator CDATA #FIXED "http://vectornator.io"
  vectornator:shadowRadius CDATA #IMPLIED >
<!ATTLIST image
  xmlns:vectornator CDATA #FIXED "http://vectornator.io"
  vectornator:shadowOffset CDATA #IMPLIED >
<!ATTLIST image
  xmlns:vectornator CDATA #FIXED "http://vectornator.io"
  vectornator:shadowAngle CDATA #IMPLIED >

<!ATTLIST g
  xmlns:vectornator CDATA #FIXED "http://vectornator.io"
  vectornator:blendMode CDATA #IMPLIED >
<!ATTLIST g
  xmlns:vectornator CDATA #FIXED "http://vectornator.io"
  vectornator:shadowColor CDATA #IMPLIED >
<!ATTLIST g
  xmlns:vectornator CDATA #FIXED "http://vectornator.io"
  vectornator:shadowOpacity CDATA #IMPLIED >
<!ATTLIST g
  xmlns:vectornator CDATA #FIXED "http://vectornator.io"
  vectornator:shadowRadius CDATA #IMPLIED >
<!ATTLIST g
  xmlns:vectornator CDATA #FIXED "http://vectornator.io"
  vectornator:shadowOffset CDATA #IMPLIED >
<!ATTLIST g
  xmlns:vectornator CDATA #FIXED "http://vectornator.io"
  vectornator:shadowAngle CDATA #IMPLIED >

<!ENTITY % SVG.filter.extra.content  "| feDropShadow" >
<!ELEMENT feDropShadow EMPTY>
<!ATTLIST feDropShadow
  xmlns:svg CDATA #FIXED "http://www.w3.org/Graphics/SVG/1.1/DTD/svg11.dtd"
  dx CDATA #IMPLIED>
<!ATTLIST feDropShadow
  xmlns:svg CDATA #FIXED "http://www.w3.org/Graphics/SVG/1.1/DTD/svg11.dtd"
  dy CDATA #IMPLIED>
<!ATTLIST feDropShadow
  xmlns:svg CDATA #FIXED "http://www.w3.org/Graphics/SVG/1.1/DTD/svg11.dtd"
  stdDeviation CDATA #IMPLIED>
<!ATTLIST feDropShadow
  xmlns:svg CDATA #FIXED "http://www.w3.org/Graphics/SVG/1.1/DTD/svg11.dtd"
  flood-opacity CDATA #IMPLIED>
<!ATTLIST feDropShadow
  xmlns:svg CDATA #FIXED "http://www.w3.org/Graphics/SVG/1.1/DTD/svg11.dtd"
  in CDATA #IMPLIED>
<!ATTLIST feDropShadow
  xmlns:svg CDATA #FIXED "http://www.w3.org/Graphics/SVG/1.1/DTD/svg11.dtd"
  result CDATA #IMPLIED>
<!ATTLIST feDropShadow
  xmlns:svg CDATA #FIXED "http://www.w3.org/Graphics/SVG/1.1/DTD/svg11.dtd"
  flood-color CDATA #IMPLIED>
]
>
<!-- Created with Vectornator (http://vectornator.io/) -->
<svg stroke-miterlimit="10" style="fill-rule:nonzero;clip-rule:evenodd;stroke-linecap:round;stroke-linejoin:round;" version="1.1" viewBox="0 0 30 30" xml:space="preserve" xmlns="http://www.w3.org/2000/svg" xmlns:vectornator="http://vectornator.io" xmlns:xlink="http://www.w3.org/1999/xlink">
<defs/>
<g id="Layer-3" vectornator:layerName="Layer 3">
<g opacity="1">
<path d="M14.6875 2.625C9.47424 6.41265 11.2928 5.10373 9.5 6.40625C8.42589 7.18664 7.32411 7.96961 6.25 8.75C5.51208 9.28613 4.80042 9.80762 4.0625 10.3438C3.64239 10.649 3.12223 10.9561 2.84375 11.4062C2.42377 12.0851 3.15619 13.6103 3.34375 14.1875C3.41523 14.4075 3.49401 14.6228 3.5625 14.8438C3.7915 15.5826 4.00103 16.3203 4.21875 17.0625C4.57655 18.2823 4.92283 19.4991 5.28125 20.7188C5.4979 21.456 5.72041 22.2004 5.9375 22.9375C6.29749 24.1598 6.51019 26.1852 8 26.5312C8.47229 26.641 8.98465 26.6133 9.46875 26.625C10.0832 26.6398 10.698 26.6434 11.3125 26.6562C12.6941 26.6852 13.6181 26.6921 15 26.6875C16.2293 26.6834 17.4589 26.6657 18.6875 26.625C19.302 26.6047 19.9168 26.5826 20.5312 26.5625C21.3349 26.5362 22.3733 26.6536 22.9688 26C23.2979 25.6387 23.4665 24.778 23.5938 24.3438C23.6639 24.1044 23.7423 23.8644 23.8125 23.625C23.8776 23.4029 23.9349 23.1596 24 22.9375C24.2178 22.195 24.4373 21.4609 24.6562 20.7188C25.0158 19.4998 25.3477 18.2778 25.7188 17.0625C26.097 15.8237 26.5373 14.6067 26.9375 13.375C27.0248 13.1064 27.5116 11.9162 27.4375 11.7188C27.199 11.0835 26.6798 10.9031 26.125 10.5C25.4614 10.0178 24.7886 9.51341 24.125 9.03125C22.204 7.63555 24.1515 9.04692 15.3125 2.625C15.2134 2.55298 15.1135 2.65001 15 2.65625C14.8865 2.65001 14.7866 2.55298 14.6875 2.625ZM15 3.65625C17.0956 5.17883 16.9028 5.04925 17.7812 5.6875C19.4746 6.91778 21.1504 8.14472 22.8438 9.375C23.8733 10.123 24.908 10.877 25.9375 11.625C26.0698 11.7211 26.2115 11.8101 26.3438 11.9062C26.3248 11.9655 26.3004 12.0345 26.2812 12.0938C26.1863 12.3879 26.0643 12.6748 25.9688 12.9688C25.6773 13.8656 25.3863 14.7597 25.0938 15.6562C24.4683 17.5731 23.8014 19.4754 23.125 21.375C22.8255 22.2162 22.5193 23.0341 22.2188 23.875C22.1249 24.1377 22.03 24.3974 21.9375 24.6562C21.9083 24.7378 21.8729 24.8247 21.8438 24.9062C21.8053 24.9118 21.7586 24.9346 21.7188 24.9375C21.6094 24.9455 21.5157 24.9411 21.4062 24.9375C21.1182 24.928 20.8193 24.9157 20.5312 24.9062C19.3023 24.8661 18.0731 24.8085 16.8438 24.7812C14.3855 24.7268 11.9262 24.7846 9.46875 24.8438C9.13513 24.8518 8.50407 24.9949 8.21875 24.8125C8.04135 24.6991 7.97859 24.2033 7.90625 24C7.725 23.4907 7.55537 22.9756 7.375 22.4688C6.90484 21.1476 6.40895 19.852 5.9375 18.5312C5.60167 17.5904 5.27346 16.6283 4.9375 15.6875C4.72088 15.0809 4.51156 14.4876 4.3125 13.875C4.23545 13.6379 4.1708 13.3934 4.09375 13.1562C4.00993 12.8983 3.92757 12.633 3.84375 12.375C3.6507 11.7808 3.65603 11.9003 4.25 11.4688C4.38017 11.3742 4.52608 11.2821 4.65625 11.1875C5.08347 10.8771 5.51028 10.5604 5.9375 10.25C6.55891 9.79852 7.19109 9.35773 7.8125 8.90625C8.84049 8.15937 9.84701 7.40313 10.875 6.65625C11.6314 6.10672 11.5345 6.17408 15 3.65625Z" fill="#000000" stroke="none"/>
</g>
<path d="M12 3.62129C12 1.96443 13.3431 0.621287 15 0.621287C16.6569 0.621287 18 1.96443 18 3.62129C18 5.27814 16.6569 6.62129 15 6.62129C13.3431 6.62129 12 5.27814 12 3.62129Z" fill="#000000" fill-rule="evenodd" opacity="1" stroke="none"/>
<path d="M24 11.3787C24 9.72186 25.3431 8.37871 27 8.37871C28.6569 8.37871 30 9.72186 30 11.3787C30 13.0356 28.6569 14.3787 27 14.3787C25.3431 14.3787 24 13.0356 24 11.3787Z" fill="#000000" fill-rule="evenodd" opacity="1" stroke="none"/>
<path d="M19.7662 26.3787C19.7662 24.7219 21.1093 23.3787 22.7662 23.3787C24.423 23.3787 25.7662 24.7219 25.7662 26.3787C25.7662 28.0356 24.423 29.3787 22.7662 29.3787C21.1093 29.3787 19.7662 28.0356 19.7662 26.3787Z" fill="#000000" fill-rule="evenodd" opacity="1" stroke="none"/>
<path d="M4.65994 26.3787C4.65994 24.7219 6.00308 23.3787 7.65994 23.3787C9.31679 23.3787 10.6599 24.7219 10.6599 26.3787C10.6599 28.0356 9.31679 29.3787 7.65994 29.3787C6.00308 29.3787 4.65994 28.0356 4.65994 26.3787Z" fill="#000000" fill-rule="evenodd" opacity="1" stroke="none"/>
<path d="M0.031425 12.0152C0.031425 10.3583 1.37457 9.01517 3.03142 9.01517C4.68828 9.01517 6.03142 10.3583 6.03142 12.0152C6.03142 13.672 4.68828 15.0152 3.03142 15.0152C1.37457 15.0152 0.031425 13.672 0.031425 12.0152Z" fill="#000000" fill-rule="evenodd" opacity="1" stroke="none"/>
</g>
</svg>
