<?xml version="1.0" encoding="UTF-8" standalone="no"?>
<!DOCTYPE svg PUBLIC "-//W3C//DTD SVG 1.1//EN" "http://www.w3.org/Graphics/SVG/1.1/DTD/svg11.dtd"
[
<!ATTLIST g
  xmlns:vectornator CDATA #FIXED "http://vectornator.io"
  vectornator:layerName CDATA #IMPLIED >
<!ATTLIST g
  xmlns:vectornator CDATA #FIXED "http://vectornator.io"
  vectornator:mask CDATA #IMPLIED >
<!ATTLIST text
  xmlns:vectornator CDATA #FIXED "http://vectornator.io"
  vectornator:width CDATA #IMPLIED >

<!ATTLIST path
  xmlns:vectornator CDATA #FIXED "http://vectornator.io"
  vectornator:blendMode CDATA #IMPLIED >
<!ATTLIST path
  xmlns:vectornator CDATA #FIXED "http://vectornator.io"
  vectornator:shadowColor CDATA #IMPLIED >
<!ATTLIST path
  xmlns:vectornator CDATA #FIXED "http://vectornator.io"
  vectornator:shadowOpacity CDATA #IMPLIED >
<!ATTLIST path
  xmlns:vectornator CDATA #FIXED "http://vectornator.io"
  vectornator:shadowRadius CDATA #IMPLIED >
<!ATTLIST path
  xmlns:vectornator CDATA #FIXED "http://vectornator.io"
  vectornator:shadowOffset CDATA #IMPLIED >
<!ATTLIST path
  xmlns:vectornator CDATA #FIXED "http://vectornator.io"
  vectornator:shadowAngle CDATA #IMPLIED >

<!ATTLIST image
  xmlns:vectornator CDATA #FIXED "http://vectornator.io"
  vectornator:blendMode CDATA #IMPLIED >
<!ATTLIST image
  xmlns:vectornator CDATA #FIXED "http://vectornator.io"
  vectornator:shadowColor CDATA #IMPLIED >
<!ATTLIST image
  xmlns:vectornator CDATA #FIXED "http://vectornator.io"
  vectornator:shadowOpacity CDATA #IMPLIED >
<!ATTLIST image
  xmlns:vectornator CDATA #FIXED "http://vectornator.io"
  vectornator:shadowRadius CDATA #IMPLIED >
<!ATTLIST image
  xmlns:vectornator CDATA #FIXED "http://vectornator.io"
  vectornator:shadowOffset CDATA #IMPLIED >
<!ATTLIST image
  xmlns:vectornator CDATA #FIXED "http://vectornator.io"
  vectornator:shadowAngle CDATA #IMPLIED >

<!ATTLIST g
  xmlns:vectornator CDATA #FIXED "http://vectornator.io"
  vectornator:blendMode CDATA #IMPLIED >
<!ATTLIST g
  xmlns:vectornator CDATA #FIXED "http://vectornator.io"
  vectornator:shadowColor CDATA #IMPLIED >
<!ATTLIST g
  xmlns:vectornator CDATA #FIXED "http://vectornator.io"
  vectornator:shadowOpacity CDATA #IMPLIED >
<!ATTLIST g
  xmlns:vectornator CDATA #FIXED "http://vectornator.io"
  vectornator:shadowRadius CDATA #IMPLIED >
<!ATTLIST g
  xmlns:vectornator CDATA #FIXED "http://vectornator.io"
  vectornator:shadowOffset CDATA #IMPLIED >
<!ATTLIST g
  xmlns:vectornator CDATA #FIXED "http://vectornator.io"
  vectornator:shadowAngle CDATA #IMPLIED >

<!ENTITY % SVG.filter.extra.content  "| feDropShadow" >
<!ELEMENT feDropShadow EMPTY>
<!ATTLIST feDropShadow
  xmlns:svg CDATA #FIXED "http://www.w3.org/Graphics/SVG/1.1/DTD/svg11.dtd"
  dx CDATA #IMPLIED>
<!ATTLIST feDropShadow
  xmlns:svg CDATA #FIXED "http://www.w3.org/Graphics/SVG/1.1/DTD/svg11.dtd"
  dy CDATA #IMPLIED>
<!ATTLIST feDropShadow
  xmlns:svg CDATA #FIXED "http://www.w3.org/Graphics/SVG/1.1/DTD/svg11.dtd"
  stdDeviation CDATA #IMPLIED>
<!ATTLIST feDropShadow
  xmlns:svg CDATA #FIXED "http://www.w3.org/Graphics/SVG/1.1/DTD/svg11.dtd"
  flood-opacity CDATA #IMPLIED>
<!ATTLIST feDropShadow
  xmlns:svg CDATA #FIXED "http://www.w3.org/Graphics/SVG/1.1/DTD/svg11.dtd"
  in CDATA #IMPLIED>
<!ATTLIST feDropShadow
  xmlns:svg CDATA #FIXED "http://www.w3.org/Graphics/SVG/1.1/DTD/svg11.dtd"
  result CDATA #IMPLIED>
<!ATTLIST feDropShadow
  xmlns:svg CDATA #FIXED "http://www.w3.org/Graphics/SVG/1.1/DTD/svg11.dtd"
  flood-color CDATA #IMPLIED>
]
>
<!-- Created with Vectornator (http://vectornator.io/) -->
<svg stroke-miterlimit="10" style="fill-rule:nonzero;clip-rule:evenodd;stroke-linecap:round;stroke-linejoin:round;" version="1.1" viewBox="0 0 30 30" xml:space="preserve" xmlns="http://www.w3.org/2000/svg" xmlns:vectornator="http://vectornator.io" xmlns:xlink="http://www.w3.org/1999/xlink">
<defs/>
<g id="Layer-2" vectornator:layerName="Layer 2">
<path d="M8.11472 14.317C7.6422 14.4104 7.19643 14.6256 6.79944 14.9613C6.61831 15.1144 6.5225 15.3327 6.50417 15.5518C6.48583 15.7709 6.53892 15.988 6.69206 16.1692C6.99836 16.5314 7.56457 16.5828 7.92682 16.2765C8.26681 15.9891 8.67494 15.9303 9.21527 16.0618C9.79829 16.2037 10.4556 16.5555 11.1479 17.0818C11.4873 17.3398 11.8228 17.6092 12.1143 17.8871C12.2873 18.0521 12.4028 18.1969 12.4632 18.2629C12.6234 18.4379 12.8341 18.5216 13.0538 18.5313C13.2734 18.5411 13.4962 18.4767 13.6711 18.3166C14.0211 17.9963 14.0451 17.4586 13.7248 17.1087C13.6394 17.0153 13.4982 16.8458 13.2953 16.6523C12.9603 16.3328 12.5889 16.0125 12.1948 15.7129C11.3309 15.0561 10.47 14.5781 9.61791 14.3707C9.09815 14.2442 8.58724 14.2236 8.11472 14.317ZM9.1079 18.8266C8.88807 18.8269 8.65799 18.927 8.49052 19.095C8.32305 19.263 8.24861 19.4926 8.24893 19.7124C8.24926 19.9322 8.32254 20.1355 8.49052 20.3029C8.58073 20.3929 8.76034 20.5442 8.97368 20.7324C9.32649 21.0437 9.69414 21.3532 10.1011 21.6451C10.8073 22.1516 11.5157 22.5552 12.1948 22.7993C13.3888 23.2285 14.4854 23.1633 15.3354 22.4235C15.5143 22.2678 15.6154 22.0523 15.6306 21.833C15.6458 21.6137 15.5716 21.3945 15.4159 21.2156C15.1045 20.8577 14.5658 20.8236 14.208 21.1351C13.9044 21.3993 13.451 21.428 12.7853 21.1887C12.2769 21.006 11.7088 20.6708 11.1211 20.2492C10.7647 19.9936 10.4131 19.7193 10.1011 19.444C9.9155 19.2802 9.79197 19.1615 9.72528 19.095C9.5573 18.9275 9.32772 18.8263 9.1079 18.8266ZM3.44411 20.8666C3.21718 20.8864 3.00688 20.9948 2.85358 21.1887L0.223002 24.5441C0.0801807 24.7247 0.0145968 24.9482 0.0351036 25.1614C0.0556104 25.3747 0.155744 25.575 0.330372 25.7251C0.447089 25.8255 3.78421 28.7214 3.98096 28.8926C4.76093 29.5629 5.67847 29.9378 6.53101 29.9931C7.38355 30.0485 8.19771 29.7704 8.78579 29.161C8.9505 28.9903 9.00444 28.7902 9.00053 28.5705C8.99662 28.3507 8.92962 28.1178 8.75894 27.9531C8.41759 27.6236 7.85361 27.6386 7.52419 27.9799C7.05429 28.4668 6.03394 28.3728 5.10835 27.5773C4.94537 27.4355 2.9334 25.7122 2.07514 24.9735L3.63201 22.9872L6.42364 25.4836C6.7777 25.7993 7.31582 25.7571 7.63156 25.403C7.94729 25.049 7.93193 24.5108 7.57787 24.1951L4.08833 21.0814C3.90383 20.9168 3.67105 20.8469 3.44411 20.8666ZM15.7649 7.28428C14.8448 7.2477 13.9564 7.55253 13.3759 8.19693C13.2171 8.37316 13.1497 8.59478 13.1611 8.81431C13.1726 9.03384 13.2802 9.24609 13.4564 9.40485C13.8089 9.72236 14.3468 9.70363 14.6643 9.35116C15.1371 8.82635 16.3882 8.85954 17.2412 9.67327C17.4322 9.84041 19.4758 11.5971 20.3281 12.3307L18.7444 14.317L15.577 11.6328C15.2156 11.3254 14.6764 11.3788 14.369 11.7402C14.0617 12.1015 14.1151 12.6407 14.4764 12.9481L18.3149 16.2229C18.5002 16.3805 18.7087 16.4329 18.9323 16.4108C19.1559 16.3886 19.372 16.2795 19.5228 16.0886L22.1802 12.7602C22.323 12.5795 22.3887 12.3561 22.3681 12.1428C22.3476 11.9295 22.2475 11.7024 22.0729 11.5523C21.9561 11.4519 18.5922 8.58281 18.3954 8.41167C17.6519 7.70176 16.6849 7.32086 15.7649 7.28428Z" fill="#000000" fill-rule="evenodd" opacity="1" stroke="none"/>
<path d="M7.55103 14.7734C7.26667 14.7112 6.9416 14.7939 6.71891 15.0418L4.73256 17.2697C4.2702 17.7484 4.0323 18.4302 4.03465 19.2024C4.037 19.9746 4.25765 20.8464 4.67887 21.6987C4.73113 21.8174 5.77651 24.104 5.80626 24.1683C6.2214 25.0643 6.56792 25.7407 6.77259 26.1278C6.88704 26.3437 6.98322 26.6171 7.06786 26.9599C7.15548 27.3147 7.21321 27.7251 7.25576 28.1141C7.2813 28.3476 7.3056 28.5026 7.30944 28.5973C7.34047 29.3614 8.26674 29.7227 8.78579 29.161L11.1211 26.6378C11.5875 26.1546 11.8203 25.4784 11.819 24.7051C11.8177 23.9318 11.5692 23.0611 11.1479 22.2088C11.1436 22.1977 9.2882 18.1228 9.08106 17.6992C9.04597 17.6249 9.01337 17.5461 8.97368 17.4576C8.76912 17.0013 8.58614 16.5017 8.40999 16.0081C8.30434 15.7121 8.2077 15.4902 8.16841 15.3639C8.0694 15.0457 7.83539 14.8355 7.55103 14.7734ZM7.04102 17.2697C7.1588 17.5709 7.28834 17.869 7.41681 18.1555C7.46126 18.2547 9.60062 22.8951 9.61791 22.9335C10.1881 24.0886 10.1943 25.1098 9.85949 25.4567L8.75894 26.6646C8.75078 26.6296 8.74067 26.592 8.7321 26.5573C8.61637 26.0886 8.46396 25.6775 8.27578 25.3225C8.09022 24.9716 7.76568 24.3124 7.36313 23.4435C7.33374 23.38 6.3013 21.094 6.23574 20.9472C5.66454 19.7899 5.63254 18.7977 5.96732 18.4508L7.04102 17.2697ZM14.3154 7.95535C14.0163 7.84307 13.6639 7.89938 13.4027 8.17009L10.96 10.7201C10.4873 11.21 10.2624 11.8778 10.2621 12.6528C10.2619 13.4278 10.4851 14.2968 10.9064 15.1492C10.9758 15.2923 12.9019 19.2163 13.1074 19.605C13.1874 19.7656 13.2633 19.9544 13.349 20.1687C13.5057 20.5603 13.6552 20.978 13.7785 21.4035C13.8524 21.6586 13.9146 21.8606 13.9396 21.9672C14.0949 22.6294 14.9168 22.8593 15.3891 22.3698L17.5633 20.115C18.0361 19.6252 18.261 18.9305 18.2612 18.1555C18.2615 17.3806 18.0382 16.5115 17.617 15.6592C17.5431 15.5079 15.6521 11.6042 15.4427 11.1765C15.3554 10.9919 15.274 10.7817 15.2012 10.5322C15.087 10.1416 14.9885 9.69883 14.9327 9.27063C14.8993 9.01381 14.8842 8.83723 14.8791 8.73378C14.8605 8.35807 14.6144 8.06762 14.3154 7.95535ZM13.4564 10.5859C13.4902 10.7278 13.4965 10.8771 13.5369 11.0154C13.6338 11.347 13.7522 11.6458 13.8859 11.928C14.0999 12.3655 16.0114 16.256 16.087 16.4108C16.6457 17.5413 16.6633 18.5602 16.3286 18.9071L15.1743 20.115C15.1064 19.9197 15.0348 19.7125 14.9596 19.5245C14.857 19.2682 14.749 19.0498 14.6375 18.8266C14.4329 18.4392 13.6057 16.7902 13.5906 16.7597C13.3353 16.2422 12.508 14.5452 12.4364 14.3976C11.8767 13.265 11.86 12.2481 12.1948 11.9012L13.4564 10.5859Z" fill="#000000" fill-rule="evenodd" opacity="1" stroke="none"/>
<path d="M21.7955 8.50307L27.0306 2.21201L21.4071 2.26802L27.1166 2.21636L27.9648 7.0639" fill="none" fill-rule="evenodd" opacity="1" stroke="#000000" stroke-linecap="round" stroke-linejoin="round" stroke-width="2"/>
<path d="M2.90726 22.9872C2.88271 22.9838 2.857 22.9895 2.85358 23.014L2.47778 25.7251C2.47435 25.7497 2.50691 25.7754 2.53146 25.7788C2.55601 25.7822 2.55488 25.7765 2.55831 25.752L2.9341 23.0409C2.93753 23.0163 2.93181 22.9906 2.90726 22.9872Z" fill="#000000" fill-rule="evenodd" opacity="1" stroke="none"/>
<path d="M3.60517 22.8261C3.58067 22.8224 3.55525 22.8553 3.55148 22.8798L3.04147 26.1546C3.0377 26.1791 3.07066 26.1777 3.09516 26.1815C3.11966 26.1852 3.14507 26.1791 3.14884 26.1546L3.63201 22.8798C3.63578 22.8553 3.62967 22.8299 3.60517 22.8261Z" fill="#000000" fill-rule="evenodd" opacity="1" stroke="none"/>
<path d="M4.22255 23.363C4.19816 23.3585 4.17332 23.3654 4.16886 23.3898L3.57832 26.6646C3.57387 26.689 3.60763 26.7139 3.63201 26.7183C3.65639 26.7228 3.6544 26.7159 3.65885 26.6915L4.27623 23.4167C4.28069 23.3923 4.24693 23.3674 4.22255 23.363Z" fill="#000000" fill-rule="evenodd" opacity="1" stroke="none"/>
<path d="M4.9473 23.5777C4.92282 23.5738 4.89754 23.6069 4.89361 23.6314L4.35676 26.9599C4.35283 26.9844 4.38597 27.0097 4.41045 27.0136C4.43492 27.0175 4.46021 27.0112 4.46413 26.9867L5.00098 23.6314C5.00491 23.6069 4.97177 23.5817 4.9473 23.5777Z" fill="#000000" fill-rule="evenodd" opacity="1" stroke="none"/>
<path d="M5.51099 24.1414C5.48633 24.1389 5.48668 24.1704 5.48415 24.1951L5.13519 27.5504C5.13266 27.5751 5.13738 27.6016 5.16204 27.6041C5.1867 27.6067 5.21319 27.6019 5.21572 27.5773L5.56468 24.1951C5.56721 24.1705 5.53565 24.144 5.51099 24.1414Z" fill="#000000" fill-rule="evenodd" opacity="1" stroke="none"/>
<path d="M6.021 24.7856C5.99625 24.7843 5.96868 24.7877 5.96732 24.8125L5.77942 28.2483C5.77805 28.2731 5.80835 28.3007 5.8331 28.302C5.85785 28.3034 5.88542 28.2731 5.88679 28.2483L6.07469 24.8393C6.07605 24.8146 6.04575 24.787 6.021 24.7856Z" fill="#000000" fill-rule="evenodd" opacity="1" stroke="none"/>
<path d="M6.53101 25.242C6.50623 25.2412 6.47809 25.2709 6.47732 25.2957L6.3968 28.3557C6.39603 28.3805 6.39886 28.4086 6.42364 28.4094C6.44842 28.4102 6.47656 28.3805 6.47732 28.3557L6.55785 25.2957C6.55862 25.2709 6.55579 25.2427 6.53101 25.242Z" fill="#000000" fill-rule="evenodd" opacity="1" stroke="none"/>
<path d="M6.93365 26.3157C6.9089 26.3143 6.8813 26.3446 6.87996 26.3694L6.77259 28.7047L6.77259 28.7315C6.78027 28.7401 6.78706 28.7308 6.79944 28.7315C6.82419 28.7328 6.85178 28.7294 6.85312 28.7047L6.98733 26.3694C6.98867 26.3446 6.9584 26.317 6.93365 26.3157Z" fill="#000000" fill-rule="evenodd" opacity="1" stroke="none"/>
<path d="M8.89316 15.9008C8.86845 15.8988 8.84145 15.9297 8.83947 15.9544L8.70526 17.5113C8.70328 17.536 8.73423 17.563 8.75894 17.565C8.78365 17.567 8.81065 17.5629 8.81263 17.5381L8.92 15.9544C8.92198 15.9297 8.91787 15.9027 8.89316 15.9008Z" fill="#000000" fill-rule="evenodd" opacity="1" stroke="none"/>
<path d="M9.59106 15.9276C9.56638 15.9254 9.53959 15.9566 9.53738 15.9813L9.32264 18.424C9.32042 18.4486 9.32479 18.4754 9.34948 18.4776C9.37417 18.4799 9.40095 18.4755 9.40317 18.4508L9.61791 15.9813C9.62012 15.9566 9.61575 15.9298 9.59106 15.9276Z" fill="#000000" fill-rule="evenodd" opacity="1" stroke="none"/>
<path d="M10.3695 16.4913C10.3449 16.4884 10.3187 16.5204 10.3158 16.545L9.96686 19.4708C9.96395 19.4954 9.99593 19.5216 10.0205 19.5245C10.0452 19.5274 10.0713 19.4954 10.0742 19.4708L10.3963 16.545C10.3993 16.5204 10.3941 16.4942 10.3695 16.4913Z" fill="#000000" fill-rule="evenodd" opacity="1" stroke="none"/>
<path d="M11.0406 16.6792C11.0159 16.6772 10.9889 16.7082 10.9869 16.7329L10.6916 20.2492C10.6896 20.274 10.7206 20.3009 10.7453 20.3029C10.77 20.3049 10.797 20.3008 10.799 20.2761L11.0674 16.7329C11.0694 16.7082 11.0653 16.6812 11.0406 16.6792Z" fill="#000000" fill-rule="evenodd" opacity="1" stroke="none"/>
<path d="M11.7116 17.1624C11.6869 17.16 11.6871 17.1914 11.6848 17.216L11.3627 20.5445C11.3603 20.5692 11.3648 20.5959 11.3895 20.5982C11.4142 20.6005 11.4409 20.5692 11.4432 20.5445L11.7653 17.216C11.7676 17.1914 11.7363 17.1647 11.7116 17.1624Z" fill="#000000" fill-rule="evenodd" opacity="1" stroke="none"/>
<path d="M12.2485 17.7797C12.2237 17.779 12.2224 17.8086 12.2216 17.8334L12.1143 20.974C12.1135 20.9988 12.1432 21.0269 12.168 21.0277C12.1927 21.0284 12.1941 20.9988 12.1948 20.974L12.3022 17.8334C12.3029 17.8086 12.2733 17.7805 12.2485 17.7797Z" fill="#000000" fill-rule="evenodd" opacity="1" stroke="none"/>
<path d="M12.7585 18.5045C12.7337 18.5051 12.7042 18.5334 12.7048 18.5582L12.7853 21.2156C12.7859 21.2404 12.7874 21.243 12.8122 21.2424C12.837 21.2418 12.8664 21.2404 12.8659 21.2156L12.8122 18.5582C12.8116 18.5334 12.7833 18.5039 12.7585 18.5045Z" fill="#000000" fill-rule="evenodd" opacity="1" stroke="none"/>
<path d="M13.3759 19.8198C13.3511 19.819 13.3498 19.8218 13.349 19.8466L13.2685 21.7793C13.2677 21.8041 13.2974 21.8053 13.3222 21.8061C13.347 21.8069 13.3751 21.8041 13.3759 21.7793L13.4296 19.8466C13.4304 19.8218 13.4006 19.8206 13.3759 19.8198Z" fill="#000000" fill-rule="evenodd" opacity="1" stroke="none"/>
<path d="M15.3354 9.00221C15.3106 9.00363 15.2803 9.03114 15.2817 9.05589L15.4427 11.7938C15.4442 11.8186 15.4717 11.8489 15.4964 11.8475C15.5212 11.8461 15.5515 11.8186 15.5501 11.7938L15.3891 9.05589C15.3876 9.03114 15.3601 9.00078 15.3354 9.00221Z" fill="#000000" fill-rule="evenodd" opacity="1" stroke="none"/>
<path d="M16.1943 8.92168C16.1696 8.92003 16.1423 8.92379 16.1407 8.94852L15.9259 12.2502C15.9243 12.2749 15.928 12.3022 15.9528 12.3038C15.9775 12.3055 16.0048 12.3017 16.0064 12.277L16.2212 8.94852C16.222 8.93615 16.2287 8.93032 16.2212 8.92168L16.1943 8.92168Z" fill="#000000" fill-rule="evenodd" opacity="1" stroke="none"/>
<path d="M16.758 9.21695C16.7334 9.2139 16.7074 9.24603 16.7043 9.27063L16.3017 12.5723C16.2987 12.5969 16.304 12.6229 16.3286 12.626C16.3532 12.629 16.3792 12.5969 16.3822 12.5723L16.8117 9.27063C16.8148 9.24603 16.7826 9.21999 16.758 9.21695Z" fill="#000000" fill-rule="evenodd" opacity="1" stroke="none"/>
<path d="M17.4291 9.70011C17.4048 9.6952 17.3803 9.70266 17.3754 9.72696L16.7312 12.8407C16.7263 12.865 16.7606 12.8895 16.7849 12.8944C16.8092 12.8993 16.8337 12.8918 16.8386 12.8675L17.4559 9.7538C17.4609 9.7295 17.4534 9.70502 17.4291 9.70011Z" fill="#000000" fill-rule="evenodd" opacity="1" stroke="none"/>
<path d="M18.2075 10.1028C18.1841 10.0946 18.162 10.1062 18.1538 10.1296L17.0533 13.297C17.0451 13.3204 17.0567 13.3425 17.0801 13.3507C17.1035 13.3589 17.1256 13.3473 17.1338 13.3239L18.2344 10.1564C18.2426 10.133 18.2309 10.1109 18.2075 10.1028Z" fill="#000000" fill-rule="evenodd" opacity="1" stroke="none"/>
<path d="M18.6907 10.4785C18.6671 10.4711 18.6445 10.4818 18.637 10.5054L17.6975 13.5118C17.6901 13.5354 17.7007 13.558 17.7244 13.5654C17.748 13.5729 17.7706 13.5622 17.7781 13.5386L18.7175 10.5591C18.725 10.5354 18.7143 10.486 18.6907 10.4785Z" fill="#000000" fill-rule="evenodd" opacity="1" stroke="none"/>
<path d="M19.0933 10.908C19.0695 10.9014 19.0463 10.911 19.0397 10.9349L18.127 14.2097C18.1203 14.2335 18.13 14.2567 18.1538 14.2634C18.1777 14.27 18.2009 14.2604 18.2075 14.2365L19.1202 10.9617C19.1268 10.9378 19.1172 10.9147 19.0933 10.908Z" fill="#000000" fill-rule="evenodd" opacity="1" stroke="none"/>
<path d="M19.4423 11.2838C19.418 11.2789 19.3935 11.2864 19.3886 11.3107L18.7712 14.4244C18.7663 14.4487 18.7738 14.4732 18.7981 14.4781C18.8224 14.483 18.8469 14.4755 18.8518 14.4513L19.4691 11.3375C19.474 11.3132 19.4666 11.2887 19.4423 11.2838Z" fill="#000000" fill-rule="evenodd" opacity="1" stroke="none"/>
<path d="M19.9255 11.6865C19.9013 11.6811 19.8771 11.6891 19.8718 11.7133L19.4423 13.5654C19.437 13.5897 19.4718 13.6138 19.496 13.6191C19.5202 13.6245 19.5443 13.6165 19.5497 13.5923L19.9523 11.7402C19.9576 11.7159 19.9497 11.6918 19.9255 11.6865Z" fill="#000000" fill-rule="evenodd" opacity="1" stroke="none"/>
</g>
</svg>
