<?xml version="1.0" encoding="UTF-8" standalone="no"?>
<!DOCTYPE svg PUBLIC "-//W3C//DTD SVG 1.1//EN" "http://www.w3.org/Graphics/SVG/1.1/DTD/svg11.dtd">
<!-- Created with Vectornator (http://vectornator.io/) -->
<svg stroke-miterlimit="10" style="fill-rule:nonzero;clip-rule:evenodd;stroke-linecap:round;stroke-linejoin:round;" version="1.1" viewBox="0 0 30 30" xml:space="preserve" xmlns="http://www.w3.org/2000/svg" xmlns:xlink="http://www.w3.org/1999/xlink">
<defs/>
<g id="Layer-6">
<path d="M10.7812 0.1875C4.98226 0.1875 0.281247 4.88851 0.28125 10.6875C0.28125 16.4865 4.98226 21.1875 10.7812 21.1875C16.5802 21.1875 21.2812 16.4865 21.2812 10.6875C21.2812 4.88851 16.5802 0.1875 10.7812 0.1875ZM10.7812 1.1875C16.028 1.1875 20.2812 5.4408 20.2812 10.6875C20.2812 15.9342 16.028 20.1875 10.7812 20.1875C5.53454 20.1875 1.28125 15.9342 1.28125 10.6875C1.28125 5.44079 5.53455 1.1875 10.7812 1.1875Z" fill="#000000" fill-rule="evenodd" opacity="1" stroke="none"/>
<path d="M19.3125 9.21875C13.7897 9.21875 9.3125 13.6959 9.3125 19.2188C9.3125 19.6533 9.50874 20.0176 9.5625 20.4375C9.97932 20.4905 10.35 20.6875 10.7812 20.6875C16.3041 20.6875 20.7812 16.2103 20.7812 10.6875C20.7812 10.2563 20.5842 9.88557 20.5312 9.46875C20.1144 9.4158 19.7437 9.21875 19.3125 9.21875Z" fill="#000000" fill-rule="evenodd" opacity="1" stroke="none"/>
<path d="M19.3125 8.71875C13.5135 8.71875 8.8125 13.4198 8.8125 19.2188C8.8125 25.0177 13.5135 29.7188 19.3125 29.7188C25.1115 29.7188 29.8125 25.0177 29.8125 19.2188C29.8125 13.4198 25.1115 8.71875 19.3125 8.71875ZM19.3125 9.71875C24.5592 9.71875 28.8125 13.972 28.8125 19.2188C28.8125 24.4655 24.5592 28.7188 19.3125 28.7188C14.0658 28.7188 9.8125 24.4655 9.8125 19.2188C9.8125 13.972 14.0658 9.71875 19.3125 9.71875Z" fill="#000000" fill-rule="evenodd" opacity="1" stroke="none"/>
<path d="M22.375 0.71875C22.1325 0.652978 21.8783 0.788721 21.8125 1.03125C21.5246 2.96206 21.5047 3.18393 21.5312 2.96875C21.5053 3.18023 21.4576 3.38168 21.4375 3.59375C21.417 3.8096 21.25 4.90625 21.25 4.90625C21.25 4.90625 21.5037 4.22346 21.7188 3.6875C21.6751 3.78142 21.7877 3.54581 21.8438 3.40625C21.8736 3.33074 21.9837 3.0591 21.9688 3.09375C22.0558 2.89192 22.1689 2.70422 22.25 2.5C22.3307 2.29686 22.2368 2.49829 22.6875 1.28125C22.7533 1.03872 22.6175 0.784522 22.375 0.71875Z" fill="#000000" fill-rule="evenodd" opacity="1" stroke="none"/>
<path d="M27 2.59375C26.8078 2.43182 26.5057 2.46409 26.3438 2.65625C25.0616 4.53078 24.9246 4.7425 25.0625 4.53125C24.9251 4.7419 24.7573 4.94236 24.625 5.15625C24.4923 5.37081 23.7812 6.40625 23.7812 6.40625C23.7812 6.40625 24.392 5.84351 24.875 5.375C24.686 5.54212 25.2214 5.01544 25.4062 4.84375C25.5944 4.66911 25.785 4.49176 25.9688 4.3125C26.1504 4.13525 25.9715 4.32694 27.0312 3.25C27.1932 3.05784 27.1922 2.75568 27 2.59375Z" fill="#000000" fill-rule="evenodd" opacity="1" stroke="none"/>
<path d="M29.0938 6.71875C27.0534 7.41673 26.837 7.48746 27.0625 7.40625C27.2899 7.32434 27.95 7.05463 27.7188 7.125C27.2588 7.26496 26.8187 7.43973 26.375 7.625C26.1538 7.71735 25.0312 8.09375 25.0312 8.09375C25.0312 8.09375 27.3953 7.82253 27.1562 7.84375C27.395 7.82256 27.6363 7.8028 27.875 7.78125C28.1141 7.75967 27.8925 7.7846 29.3125 7.59375C29.558 7.54015 29.7098 7.30801 29.6562 7.0625C29.6026 6.81699 29.3393 6.66515 29.0938 6.71875Z" fill="#000000" fill-rule="evenodd" opacity="1" stroke="none"/>
<path d="M6.03125 23.5625C6.03125 23.5625 4.11451 25.2618 4.3125 25.0938C4.10889 25.2663 3.88674 25.4163 3.6875 25.5938C3.4936 25.7665 3.69667 25.5737 2.5625 26.625C2.39159 26.8092 2.40953 27.1103 2.59375 27.2812C2.77797 27.4522 3.04784 27.4342 3.21875 27.25C4.62523 25.3996 4.77685 25.1975 4.625 25.4062C4.47228 25.6163 4.02977 26.2688 4.1875 26.0625C4.50196 25.6512 4.83061 25.2071 5.125 24.7812C5.27181 24.5689 6.03125 23.5625 6.03125 23.5625Z" fill="#000000" fill-rule="evenodd" opacity="1" stroke="none"/>
<path d="M8.71875 25.1875C8.71875 25.1875 7.87895 27.1688 7.96875 26.9688C7.87839 27.1699 7.77202 27.3589 7.6875 27.5625C7.60343 27.765 7.68954 27.5672 7.21875 28.7812C7.1492 29.0227 7.28978 29.2742 7.53125 29.3438C7.77272 29.4133 8.0242 29.2727 8.09375 29.0312C8.41353 27.0989 8.43639 26.8783 8.40625 27.0938C8.43572 26.882 8.47638 26.6812 8.5 26.4688C8.52404 26.2525 8.71875 25.1875 8.71875 25.1875Z" fill="#000000" fill-rule="evenodd" opacity="1" stroke="none"/>
<path d="M5.07421 21.6242C5.07421 21.6242 2.93792 21.8833 3.15612 21.8615C2.93669 21.8834 2.71986 21.8853 2.50119 21.9135C2.28369 21.9415 2.49812 21.9176 1.21094 22.1143C0.966924 22.1743 0.818925 22.4215 0.878944 22.6655C0.938962 22.9095 1.18614 23.0575 1.43016 22.9975C3.26488 22.312 3.46754 22.2219 3.26573 22.3031C3.46399 22.2231 3.6584 22.1583 3.85434 22.073C4.05377 21.9861 5.07421 21.6242 5.07421 21.6242Z" fill="#000000" fill-rule="evenodd" opacity="1" stroke="none"/>
</g>
</svg>
