<?xml version="1.0" encoding="UTF-8" standalone="no"?>
<!DOCTYPE svg PUBLIC "-//W3C//DTD SVG 1.1//EN" "http://www.w3.org/Graphics/SVG/1.1/DTD/svg11.dtd"
[
<!ATTLIST g
  xmlns:vectornator CDATA #FIXED "http://vectornator.io"
  vectornator:layerName CDATA #IMPLIED >
<!ATTLIST g
  xmlns:vectornator CDATA #FIXED "http://vectornator.io"
  vectornator:mask CDATA #IMPLIED >
<!ATTLIST text
  xmlns:vectornator CDATA #FIXED "http://vectornator.io"
  vectornator:width CDATA #IMPLIED >

<!ATTLIST path
  xmlns:vectornator CDATA #FIXED "http://vectornator.io"
  vectornator:blendMode CDATA #IMPLIED >
<!ATTLIST path
  xmlns:vectornator CDATA #FIXED "http://vectornator.io"
  vectornator:shadowColor CDATA #IMPLIED >
<!ATTLIST path
  xmlns:vectornator CDATA #FIXED "http://vectornator.io"
  vectornator:shadowOpacity CDATA #IMPLIED >
<!ATTLIST path
  xmlns:vectornator CDATA #FIXED "http://vectornator.io"
  vectornator:shadowRadius CDATA #IMPLIED >
<!ATTLIST path
  xmlns:vectornator CDATA #FIXED "http://vectornator.io"
  vectornator:shadowOffset CDATA #IMPLIED >
<!ATTLIST path
  xmlns:vectornator CDATA #FIXED "http://vectornator.io"
  vectornator:shadowAngle CDATA #IMPLIED >

<!ATTLIST image
  xmlns:vectornator CDATA #FIXED "http://vectornator.io"
  vectornator:blendMode CDATA #IMPLIED >
<!ATTLIST image
  xmlns:vectornator CDATA #FIXED "http://vectornator.io"
  vectornator:shadowColor CDATA #IMPLIED >
<!ATTLIST image
  xmlns:vectornator CDATA #FIXED "http://vectornator.io"
  vectornator:shadowOpacity CDATA #IMPLIED >
<!ATTLIST image
  xmlns:vectornator CDATA #FIXED "http://vectornator.io"
  vectornator:shadowRadius CDATA #IMPLIED >
<!ATTLIST image
  xmlns:vectornator CDATA #FIXED "http://vectornator.io"
  vectornator:shadowOffset CDATA #IMPLIED >
<!ATTLIST image
  xmlns:vectornator CDATA #FIXED "http://vectornator.io"
  vectornator:shadowAngle CDATA #IMPLIED >

<!ATTLIST g
  xmlns:vectornator CDATA #FIXED "http://vectornator.io"
  vectornator:blendMode CDATA #IMPLIED >
<!ATTLIST g
  xmlns:vectornator CDATA #FIXED "http://vectornator.io"
  vectornator:shadowColor CDATA #IMPLIED >
<!ATTLIST g
  xmlns:vectornator CDATA #FIXED "http://vectornator.io"
  vectornator:shadowOpacity CDATA #IMPLIED >
<!ATTLIST g
  xmlns:vectornator CDATA #FIXED "http://vectornator.io"
  vectornator:shadowRadius CDATA #IMPLIED >
<!ATTLIST g
  xmlns:vectornator CDATA #FIXED "http://vectornator.io"
  vectornator:shadowOffset CDATA #IMPLIED >
<!ATTLIST g
  xmlns:vectornator CDATA #FIXED "http://vectornator.io"
  vectornator:shadowAngle CDATA #IMPLIED >

<!ENTITY % SVG.filter.extra.content  "| feDropShadow" >
<!ELEMENT feDropShadow EMPTY>
<!ATTLIST feDropShadow
  xmlns:svg CDATA #FIXED "http://www.w3.org/Graphics/SVG/1.1/DTD/svg11.dtd"
  dx CDATA #IMPLIED>
<!ATTLIST feDropShadow
  xmlns:svg CDATA #FIXED "http://www.w3.org/Graphics/SVG/1.1/DTD/svg11.dtd"
  dy CDATA #IMPLIED>
<!ATTLIST feDropShadow
  xmlns:svg CDATA #FIXED "http://www.w3.org/Graphics/SVG/1.1/DTD/svg11.dtd"
  stdDeviation CDATA #IMPLIED>
<!ATTLIST feDropShadow
  xmlns:svg CDATA #FIXED "http://www.w3.org/Graphics/SVG/1.1/DTD/svg11.dtd"
  flood-opacity CDATA #IMPLIED>
<!ATTLIST feDropShadow
  xmlns:svg CDATA #FIXED "http://www.w3.org/Graphics/SVG/1.1/DTD/svg11.dtd"
  in CDATA #IMPLIED>
<!ATTLIST feDropShadow
  xmlns:svg CDATA #FIXED "http://www.w3.org/Graphics/SVG/1.1/DTD/svg11.dtd"
  result CDATA #IMPLIED>
<!ATTLIST feDropShadow
  xmlns:svg CDATA #FIXED "http://www.w3.org/Graphics/SVG/1.1/DTD/svg11.dtd"
  flood-color CDATA #IMPLIED>
]
>
<!-- Created with Vectornator (http://vectornator.io/) -->
<svg stroke-miterlimit="10" style="fill-rule:nonzero;clip-rule:evenodd;stroke-linecap:round;stroke-linejoin:round;" version="1.1" viewBox="0 0 30 30" xml:space="preserve" xmlns="http://www.w3.org/2000/svg" xmlns:vectornator="http://vectornator.io" xmlns:xlink="http://www.w3.org/1999/xlink">
<defs/>
<clipPath id="ArtboardFrame">
<rect height="30" width="30" x="0" y="0"/>
</clipPath>
<g clip-path="url(#ArtboardFrame)" id="Layer-1" vectornator:layerName="Layer 1">
<g opacity="1">
<path d="M11.0625 15.1562C11.0164 15.078 10.5737 15.2483 10.0938 15.5312C9.61385 15.8142 9.26638 16.1093 9.3125 16.1875C11.9333 18.4592 13.6127 21.6847 14.1875 25.0938C14.4647 26.7382 14.4719 28.4354 13.8438 30C13.8857 30.0787 14.3296 29.9449 14.8125 29.6875C15.2954 29.4301 15.6357 29.1412 15.5938 29.0625C15.9115 28.2698 16.0835 27.4593 16.125 26.625C16.1665 25.7907 16.0781 24.9271 15.9375 24.0938C15.3601 20.6715 13.6935 17.4365 11.0625 15.1562ZM2.5625 0.0625C2.51991-0.0163607 2.07761 0.144918 1.59375 0.40625C1.10989 0.667582 0.769908 0.921139 0.8125 1C-0.617276 5.70345 1.70782 13.2935 6.75 14.9062C6.79691 14.9831 7.21569 14.8191 7.6875 14.5312C8.15932 14.2434 8.51566 13.9519 8.46875 13.875C3.47506 12.2802 1.14619 4.7189 2.5625 0.0625Z" fill="#000000" stroke="none"/>
</g>
<g opacity="1">
<path d="M14.7188 0.0625C15.9934 4.10755 14.4408 9.90066 11.0625 12.5625C10.1042 13.3176 9.08688 13.5616 7.96875 13.9688C6.88757 14.3624 5.90232 14.9663 5.0625 15.75C2.70636 17.9486 1.06461 21.9463 0.96875 25.5625C0.936796 26.7679 1.0624 27.9285 1.40625 28.9688C1.35655 29.0423 1.70467 29.3513 2.15625 29.6562C2.60783 29.9612 3.0128 30.1674 3.0625 30.0938C1.69695 25.9716 3.57951 19.8694 6.6875 16.9688C7.52024 16.1915 8.49019 15.5465 9.5625 15.1562C10.6877 14.7468 11.7231 14.5411 12.6875 13.7812C15.2468 11.7647 16.7595 7.98636 16.8125 4.5C16.8302 3.33788 16.6649 2.20786 16.3438 1.1875C16.3936 1.11392 16.0764 0.805601 15.625 0.5C15.1736 0.194399 14.7686-0.0110753 14.7188 0.0625Z" fill="#000000" stroke="none"/>
</g>
<g opacity="1">
<path d="M5.96875 3.25C4.25354 3.47375 4.48318 3.43833 4.25 3.46875C4.11406 3.48648 4.08196 3.48931 4 3.5C3.77214 3.52972 3.54036 3.56403 3.3125 3.59375C2.80531 3.65991 2.31969 3.74634 1.8125 3.8125C1.63966 3.83505 1.45409 3.85245 1.28125 3.875C1.18372 3.88772 0.902468 3.91897 1 3.90625C1.77756 3.80482 0.975065 3.89591 0.65625 3.9375C0.598755 4.00665 0.919455 4.36598 1.34375 4.71875C1.76805 5.07152 2.16125 5.2879 2.21875 5.21875C2.53306 5.17766 2.27541 5.22094 2.53125 5.1875C2.62549 5.17518 2.71826 5.16857 2.8125 5.15625C4.16074 4.98 5.23406 4.82398 4.84375 4.875C5.07449 4.84484 5.30051 4.81141 5.53125 4.78125C5.80737 4.74515 6.65112 4.6514 6.375 4.6875C5.87108 4.75338 6.36101 4.68015 7.5 4.53125C7.55744 4.46217 7.26762 4.13367 6.84375 3.78125C6.41988 3.42883 6.02619 3.18092 5.96875 3.25Z" fill="#000000" stroke="none"/>
</g>
<g opacity="1">
<path d="M8.5 8.25C5.24599 8.71439 4.70767 8.79615 5.25 8.71875C4.70766 8.79615 3.625 8.9375 3.625 8.9375C3.625 8.9375 3.62701 8.92405 2 9.15625C1.94251 9.22548 2.2315 9.58479 2.65625 9.9375C3.081 10.2902 3.47377 10.5067 3.53125 10.4375C5.15566 10.2053 4.68117 10.2867 5.15625 10.2188C5.15625 10.2188 6.23904 10.0463 6.78125 9.96875C7.32346 9.89125 8.40625 9.75 8.40625 9.75C8.40625 9.75 8.40463 9.76376 10.0312 9.53125C10.0887 9.46209 9.79933 9.10236 9.375 8.75C8.95067 8.39764 8.55743 8.18084 8.5 8.25Z" fill="#000000" stroke="none"/>
</g>
<g opacity="1">
<path d="M15.0312 2.3125C14.5942 2.35016 14.9475 2.31327 14.5938 2.34375C14.726 2.33236 14.3197 2.36361 14.1875 2.375C14.1719 2.37634 13.5156 2.43616 13.5 2.4375C12.811 2.49686 12.1265 2.56564 11.4375 2.625C11.1265 2.6518 10.811 2.6607 10.5 2.6875C10.1256 2.71976 9.00055 2.81351 9.375 2.78125C10.0584 2.72237 9.38834 2.80441 7.84375 2.9375C7.78628 3.00629 8.07794 3.33488 8.5 3.6875C8.92206 4.04012 9.31753 4.25629 9.375 4.1875C10.9074 4.05576 10.2636 4.11775 10.9062 4.0625C11.2793 4.03043 11.6582 4.00082 12.0312 3.96875C12.3402 3.94219 12.6598 3.93281 12.9688 3.90625C13.6565 3.84712 14.3435 3.77787 15.0312 3.71875C15.2656 3.6986 15.4844 3.6764 15.7188 3.65625C15.851 3.64488 16.2573 3.61363 16.125 3.625C15.0706 3.71564 16.1302 3.63092 16.5625 3.59375C16.62 3.52489 16.3287 3.16547 15.9062 2.8125C15.4838 2.45953 15.0888 2.24364 15.0312 2.3125Z" fill="#000000" stroke="none"/>
</g>
<g opacity="1">
<path d="M14.4062 7.34375C13.2146 7.45147 13.4337 7.41807 13.2188 7.4375C12.7807 7.4771 12.3443 7.5229 11.9062 7.5625C11.7001 7.58113 11.1064 7.64363 11.3125 7.625C11.6887 7.59099 11.2878 7.61063 10.4375 7.6875C10.38 7.75632 10.6715 8.11615 11.0938 8.46875C11.516 8.82135 11.9113 9.03757 11.9688 8.96875C12.8036 8.89357 12.4671 8.93736 12.8125 8.90625C12.6063 8.92482 13.2313 8.86232 13.4375 8.84375C13.6076 8.82843 13.7986 8.82782 13.9688 8.8125C14.347 8.77844 14.7155 8.72156 15.0938 8.6875C15.2226 8.6759 15.5976 8.64465 15.4688 8.65625C14.9616 8.70192 15.4793 8.66626 15.9375 8.625C15.995 8.55611 15.7039 8.1967 15.2812 7.84375C14.8586 7.4908 14.4638 7.27487 14.4062 7.34375Z" fill="#000000" stroke="none"/>
</g>
<g opacity="1">
<path d="M7 25.4375C5.75263 25.5507 6.27485 25.4836 5.75 25.5312C6.05561 25.5035 5.14936 25.5973 4.84375 25.625C4.59162 25.6479 4.31463 25.6646 4.0625 25.6875C3.5013 25.7384 2.96745 25.7928 2.40625 25.8438C2.21501 25.8611 2.00374 25.8889 1.8125 25.9062C1.70458 25.916 1.39208 25.9473 1.5 25.9375C2.36036 25.8595 1.50901 25.9367 1.15625 25.9688C1.09873 26.0376 1.38982 26.3658 1.8125 26.7188C2.23518 27.0717 2.62998 27.3189 2.6875 27.25C3.03423 27.2185 2.74883 27.2444 3.03125 27.2188C3.13617 27.2092 3.23883 27.197 3.34375 27.1875C3.53494 27.1701 3.74631 27.1424 3.9375 27.125C4.1255 27.1079 4.312 27.0796 4.5 27.0625C4.86671 27.0291 5.22704 27.0021 5.59375 26.9688C5.85414 26.9451 6.11461 26.9299 6.375 26.9062C6.68053 26.8785 7.58678 26.7847 7.28125 26.8125C6.72366 26.8632 7.27094 26.8334 8.53125 26.7188C8.58872 26.6499 8.29726 26.2901 7.875 25.9375C7.45273 25.5849 7.05747 25.3687 7 25.4375Z" fill="#000000" stroke="none"/>
</g>
<g opacity="1">
<path d="M14.3125 24.75C14 24.7771 14.2548 24.7591 14 24.7812C14.0976 24.7728 13.7851 24.804 13.6875 24.8125C13.5218 24.8269 13.3532 24.8294 13.1875 24.8438C12.5896 24.8957 11.3656 24.994 11.6562 24.9688C11.4283 24.9886 11.1967 25.0114 10.9688 25.0312C10.6924 25.0553 9.84867 25.1178 10.125 25.0938C10.6293 25.0499 10.1398 25.1197 9 25.2188C8.94253 25.2875 9.23416 25.6161 9.65625 25.9688C10.0783 26.3214 10.4738 26.5375 10.5312 26.4688C12.4975 26.2985 12.4634 26.3157 12.5 26.3125C12.728 26.2928 12.9595 26.2697 13.1875 26.25C13.6951 26.206 14.2112 26.169 14.7188 26.125C14.8917 26.11 15.0458 26.0775 15.2188 26.0625C15.3164 26.054 15.5976 26.054 15.5 26.0625C14.7219 26.1299 15.5247 26.0589 15.8438 26.0312C15.9013 25.9624 15.61 25.603 15.1875 25.25C14.765 24.897 14.37 24.6811 14.3125 24.75Z" fill="#000000" stroke="none"/>
</g>
<g opacity="1">
<path d="M7 20.375C4.45239 20.5776 3.72165 20.6219 4.46875 20.5625C3.98143 20.6013 3.48732 20.6487 3 20.6875C2.83393 20.7007 2.66607 20.7055 2.5 20.7188C2.40629 20.7262 2.12504 20.7575 2.21875 20.75C2.96585 20.6906 2.21257 20.7569 1.90625 20.7812C1.84872 20.8501 2.17156 21.1783 2.59375 21.5312C3.01594 21.8842 3.37997 22.1313 3.4375 22.0625C3.74848 22.0377 3.49854 22.0513 3.75 22.0312C3.84357 22.0238 3.93768 22.0075 4.03125 22C4.15592 21.9901 4.28158 21.9787 4.40625 21.9688C4.47541 21.9632 4.50518 21.9733 4.5625 21.9688C5.25822 21.9132 5.96053 21.868 6.65625 21.8125C6.92155 21.7913 7.7028 21.7288 7.4375 21.75C6.95333 21.7886 7.4369 21.7436 8.53125 21.6562C8.58872 21.5875 8.29677 21.2276 7.875 20.875C7.45323 20.5224 7.05747 20.3063 7 20.375Z" fill="#000000" stroke="none"/>
</g>
<g opacity="1">
<path d="M13.375 19.625C13.0916 19.6551 13.3251 19.6317 13.0938 19.6562C13.1829 19.6468 12.9016 19.678 12.8125 19.6875C12.7815 19.6908 12.7498 19.6842 12.7188 19.6875C12.5923 19.7009 12.4702 19.7053 12.3438 19.7188C11.8836 19.7677 11.4289 19.8261 10.9688 19.875C10.7591 19.8973 10.5534 19.9152 10.3438 19.9375C10.0914 19.9643 9.31014 20.0581 9.5625 20.0312C10.023 19.9823 9.57222 20.0144 8.53125 20.125C8.47379 20.1939 8.76459 20.5537 9.1875 20.9062C9.61041 21.2588 10.005 21.4752 10.0625 21.4062C11.0866 21.2977 10.6594 21.3585 11.0938 21.3125C11.3196 21.2886 11.5554 21.2427 11.7812 21.2188C11.787 21.2181 11.8736 21.2189 11.875 21.2188C12.0833 21.1967 12.2917 21.1783 12.5 21.1562C12.9636 21.1071 13.4114 21.0491 13.875 21C14.033 20.9833 14.1858 20.9855 14.3438 20.9688C14.4329 20.9593 14.7141 20.9281 14.625 20.9375C13.9143 21.0128 14.6149 20.9371 14.9062 20.9062C14.9638 20.8373 14.6733 20.4779 14.25 20.125C13.8267 19.7721 13.4325 19.556 13.375 19.625Z" fill="#000000" stroke="none"/>
</g>
<path d="M23.1199 20.3155L23.1855 9.8162" fill="none" fill-rule="evenodd" opacity="1" stroke="#000000" stroke-linecap="round" stroke-linejoin="round" stroke-width="2"/>
<path d="M17.8703 15.0331L28.3367 15.0659" fill="none" fill-rule="evenodd" opacity="1" stroke="#000000" stroke-linecap="round" stroke-linejoin="round" stroke-width="2"/>
</g>
</svg>
