<?xml version="1.0" encoding="UTF-8" standalone="no"?>
<!DOCTYPE svg PUBLIC "-//W3C//DTD SVG 1.1//EN" "http://www.w3.org/Graphics/SVG/1.1/DTD/svg11.dtd">
<!-- Created with Vectornator (http://vectornator.io/) -->
<svg stroke-miterlimit="10" style="fill-rule:nonzero;clip-rule:evenodd;stroke-linecap:round;stroke-linejoin:round;" version="1.1" viewBox="0 0 30 30" xml:space="preserve" xmlns="http://www.w3.org/2000/svg" xmlns:xlink="http://www.w3.org/1999/xlink">
<defs/>
<g id="Layer-5">
<path d="M1.42321 1.17293L1.36156 8.67507L10.0231 8.70168L11.1806 7.48063L13.9069 4.60476L9.93062 1.17293L1.42321 1.17293Z" fill="#000000" fill-rule="evenodd" opacity="1" stroke="#000000" stroke-linecap="round" stroke-linejoin="round" stroke-width="1"/>
<path d="M1.42496 21.1818L1.36351 28.6839L9.99637 28.7105L11.1501 27.4895L13.8673 24.6136L9.90421 21.1818L1.42496 21.1818Z" fill="#000000" fill-rule="evenodd" opacity="1" stroke="#000000" stroke-linecap="round" stroke-linejoin="round" stroke-width="1"/>
<path d="M28.4033 8.80822L28.543 1.30673L15.9985 1.35798L19.959 5.26023L16.0228 8.88713L28.4033 8.80822Z" fill="none" fill-rule="evenodd" opacity="1" stroke="#000000" stroke-linecap="round" stroke-linejoin="round" stroke-width="1"/>
<path d="M28.369 28.7499L28.5091 21.2484L15.9305 21.2997L19.9018 25.2019L15.9549 28.8288L28.369 28.7499Z" fill="none" fill-rule="evenodd" opacity="1" stroke="#000000" stroke-linecap="round" stroke-linejoin="round" stroke-width="1"/>
<path d="M1.43153 11.2319L1.37432 18.734C1.37432 18.734 7.37215 18.7874 9.41218 18.7606C12.4005 18.6155 13.8055 16.8961 13.8795 15.1424C13.9534 13.3887 13.3618 11.2319 9.32637 11.2319C6.63268 11.2319 1.43153 11.2319 1.43153 11.2319Z" fill="#000000" fill-rule="evenodd" opacity="1" stroke="#000000" stroke-linecap="round" stroke-linejoin="round" stroke-width="1"/>
<path d="M28.4093 18.6921L28.4686 11.1899C28.4686 11.1899 18.0796 11.2549 16.0293 11.2813C16.6669 11.2741 20.3457 12.6056 20.3829 15.0127C20.42 17.4198 16.8527 18.5545 16.1138 18.8101C18.821 18.8106 28.4093 18.6921 28.4093 18.6921Z" fill="none" fill-rule="evenodd" opacity="1" stroke="#000000" stroke-linecap="round" stroke-linejoin="round" stroke-width="1"/>
</g>
</svg>
