<?xml version="1.0" encoding="UTF-8" standalone="no"?>
<!DOCTYPE svg PUBLIC "-//W3C//DTD SVG 1.1//EN" "http://www.w3.org/Graphics/SVG/1.1/DTD/svg11.dtd"
[
<!ATTLIST g
  xmlns:vectornator CDATA #FIXED "http://vectornator.io"
  vectornator:layerName CDATA #IMPLIED >
<!ATTLIST g
  xmlns:vectornator CDATA #FIXED "http://vectornator.io"
  vectornator:mask CDATA #IMPLIED >
<!ATTLIST text
  xmlns:vectornator CDATA #FIXED "http://vectornator.io"
  vectornator:width CDATA #IMPLIED >

<!ATTLIST path
  xmlns:vectornator CDATA #FIXED "http://vectornator.io"
  vectornator:blendMode CDATA #IMPLIED >
<!ATTLIST path
  xmlns:vectornator CDATA #FIXED "http://vectornator.io"
  vectornator:shadowColor CDATA #IMPLIED >
<!ATTLIST path
  xmlns:vectornator CDATA #FIXED "http://vectornator.io"
  vectornator:shadowOpacity CDATA #IMPLIED >
<!ATTLIST path
  xmlns:vectornator CDATA #FIXED "http://vectornator.io"
  vectornator:shadowRadius CDATA #IMPLIED >
<!ATTLIST path
  xmlns:vectornator CDATA #FIXED "http://vectornator.io"
  vectornator:shadowOffset CDATA #IMPLIED >
<!ATTLIST path
  xmlns:vectornator CDATA #FIXED "http://vectornator.io"
  vectornator:shadowAngle CDATA #IMPLIED >

<!ATTLIST image
  xmlns:vectornator CDATA #FIXED "http://vectornator.io"
  vectornator:blendMode CDATA #IMPLIED >
<!ATTLIST image
  xmlns:vectornator CDATA #FIXED "http://vectornator.io"
  vectornator:shadowColor CDATA #IMPLIED >
<!ATTLIST image
  xmlns:vectornator CDATA #FIXED "http://vectornator.io"
  vectornator:shadowOpacity CDATA #IMPLIED >
<!ATTLIST image
  xmlns:vectornator CDATA #FIXED "http://vectornator.io"
  vectornator:shadowRadius CDATA #IMPLIED >
<!ATTLIST image
  xmlns:vectornator CDATA #FIXED "http://vectornator.io"
  vectornator:shadowOffset CDATA #IMPLIED >
<!ATTLIST image
  xmlns:vectornator CDATA #FIXED "http://vectornator.io"
  vectornator:shadowAngle CDATA #IMPLIED >

<!ATTLIST g
  xmlns:vectornator CDATA #FIXED "http://vectornator.io"
  vectornator:blendMode CDATA #IMPLIED >
<!ATTLIST g
  xmlns:vectornator CDATA #FIXED "http://vectornator.io"
  vectornator:shadowColor CDATA #IMPLIED >
<!ATTLIST g
  xmlns:vectornator CDATA #FIXED "http://vectornator.io"
  vectornator:shadowOpacity CDATA #IMPLIED >
<!ATTLIST g
  xmlns:vectornator CDATA #FIXED "http://vectornator.io"
  vectornator:shadowRadius CDATA #IMPLIED >
<!ATTLIST g
  xmlns:vectornator CDATA #FIXED "http://vectornator.io"
  vectornator:shadowOffset CDATA #IMPLIED >
<!ATTLIST g
  xmlns:vectornator CDATA #FIXED "http://vectornator.io"
  vectornator:shadowAngle CDATA #IMPLIED >

<!ENTITY % SVG.filter.extra.content  "| feDropShadow" >
<!ELEMENT feDropShadow EMPTY>
<!ATTLIST feDropShadow
  xmlns:svg CDATA #FIXED "http://www.w3.org/Graphics/SVG/1.1/DTD/svg11.dtd"
  dx CDATA #IMPLIED>
<!ATTLIST feDropShadow
  xmlns:svg CDATA #FIXED "http://www.w3.org/Graphics/SVG/1.1/DTD/svg11.dtd"
  dy CDATA #IMPLIED>
<!ATTLIST feDropShadow
  xmlns:svg CDATA #FIXED "http://www.w3.org/Graphics/SVG/1.1/DTD/svg11.dtd"
  stdDeviation CDATA #IMPLIED>
<!ATTLIST feDropShadow
  xmlns:svg CDATA #FIXED "http://www.w3.org/Graphics/SVG/1.1/DTD/svg11.dtd"
  flood-opacity CDATA #IMPLIED>
<!ATTLIST feDropShadow
  xmlns:svg CDATA #FIXED "http://www.w3.org/Graphics/SVG/1.1/DTD/svg11.dtd"
  in CDATA #IMPLIED>
<!ATTLIST feDropShadow
  xmlns:svg CDATA #FIXED "http://www.w3.org/Graphics/SVG/1.1/DTD/svg11.dtd"
  result CDATA #IMPLIED>
<!ATTLIST feDropShadow
  xmlns:svg CDATA #FIXED "http://www.w3.org/Graphics/SVG/1.1/DTD/svg11.dtd"
  flood-color CDATA #IMPLIED>
]
>
<!-- Created with Vectornator (http://vectornator.io/) -->
<svg stroke-miterlimit="10" style="fill-rule:nonzero;clip-rule:evenodd;stroke-linecap:round;stroke-linejoin:round;" version="1.1" viewBox="0 0 30 30" xml:space="preserve" xmlns="http://www.w3.org/2000/svg" xmlns:vectornator="http://vectornator.io" xmlns:xlink="http://www.w3.org/1999/xlink">
<defs>
<clipPath id="TextBounds">
<rect height="12.9287" width="27.104" x="-4.36239" y="-2.47125"/>
</clipPath>
<clipPath id="TextBounds_2">
<rect height="12.9287" width="27.104" x="6.30377" y="20.2809"/>
</clipPath>
</defs>
<g id="Mutate-aa" vectornator:layerName="Mutate aa">
<g fill="#000000" opacity="1" stroke="none">
<path clip-path="url(#TextBounds)" d="M3.93815 0.0482826C4.32552 0.0482826 4.70475 0.0922279 5.07584 0.180119C5.44694 0.268009 5.84733 0.417749 6.27701 0.629337L6.27701 1.86957C5.85709 1.62869 5.46891 1.45453 5.11246 1.34711C4.75602 1.23969 4.38411 1.18598 3.99674 1.18598C3.51172 1.18598 3.07389 1.28608 2.68326 1.48627C2.29264 1.68647 1.98909 1.96886 1.77262 2.33344C1.55615 2.69802 1.44791 3.1033 1.44791 3.54926C1.44791 4.00499 1.55534 4.41352 1.77018 4.77485C1.98502 5.13617 2.28776 5.41531 2.67838 5.61225C3.06901 5.80919 3.50846 5.90766 3.99674 5.90766C4.37109 5.90766 4.72835 5.85395 5.06852 5.74652C5.40869 5.6391 5.83756 5.44542 6.35514 5.16547L6.35514 6.4057C5.91243 6.63682 5.50553 6.80121 5.13444 6.89887C4.76334 6.99652 4.3304 7.04535 3.83561 7.04535C3.11621 7.04535 2.4733 6.90212 1.9069 6.61567C1.34049 6.32921 0.895342 5.91661 0.571449 5.37787C0.247555 4.83914 0.0856087 4.24913 0.0856087 3.60785C0.0856087 2.921 0.252438 2.30414 0.586097 1.75727C0.919756 1.21039 1.37874 0.788843 1.96305 0.492619C2.54736 0.196395 3.20573 0.0482826 3.93815 0.0482826Z" fill-rule="evenodd"/>
<path clip-path="url(#TextBounds)" d="M8.49869 0.136173L10.1491 2.41645L11.819 0.136173L13.3864 0.136173L10.8083 3.57856L10.8083 6.95746L9.48991 6.95746L9.48991 3.56879L6.89713 0.136173L8.49869 0.136173Z" fill-rule="evenodd"/>
<path clip-path="url(#TextBounds)" d="M16.1598 0.0482826C16.8239 0.0482826 17.4635 0.214298 18.0788 0.546329L18.0788 1.7182C17.3724 1.29177 16.7458 1.07856 16.1989 1.07856C15.8669 1.07856 15.6073 1.14285 15.4201 1.27143C15.2329 1.40001 15.1393 1.57172 15.1393 1.78656C15.1393 2.04373 15.3135 2.28136 15.6618 2.49945C15.7594 2.56456 16.1354 2.74685 16.7897 3.04633C17.3496 3.31 17.7533 3.60297 18.0006 3.92524C18.248 4.2475 18.3717 4.63487 18.3717 5.08735C18.3717 5.67328 18.161 6.1461 17.7394 6.5058C17.3179 6.8655 16.7718 7.04535 16.1012 7.04535C15.665 7.04535 15.2899 6.99734 14.9757 6.90131C14.6616 6.80528 14.3092 6.64008 13.9186 6.4057L13.9186 5.10688C14.6478 5.71235 15.3346 6.01508 15.9792 6.01508C16.3014 6.01508 16.5618 5.94509 16.7604 5.80512C16.959 5.66514 17.0583 5.4796 17.0583 5.24848C17.0583 4.93272 16.8857 4.67556 16.5407 4.47699C16.2542 4.32074 15.8848 4.13357 15.4323 3.91547C14.8952 3.67133 14.494 3.3865 14.2287 3.06098C13.9634 2.73546 13.8307 2.35785 13.8307 1.92817C13.8307 1.35525 14.0439 0.898706 14.4704 0.558537C14.8968 0.218367 15.46 0.0482826 16.1598 0.0482826Z" fill-rule="evenodd"/>
</g>
<g fill="#000000" opacity="1" stroke="none">
<path clip-path="url(#TextBounds_2)" d="M14.0281 22.8883L17.0408 29.7096L15.6492 29.7096L14.9412 28.0494L11.909 28.0494L11.2498 29.7096L9.86797 29.7096L12.6805 22.8883L14.0281 22.8883ZM12.3094 27.0484L14.5115 27.0484L13.3592 24.3482L12.3094 27.0484Z" fill-rule="evenodd"/>
<path clip-path="url(#TextBounds_2)" d="M19.16 22.8883L19.16 28.6793L22.4705 28.6793L22.4705 29.7096L17.8416 29.7096L17.8416 22.8883L19.16 22.8883Z" fill-rule="evenodd"/>
<path clip-path="url(#TextBounds_2)" d="M26.8309 22.8883L29.8436 29.7096L28.452 29.7096L27.744 28.0494L24.7117 28.0494L24.0525 29.7096L22.6707 29.7096L25.4832 22.8883L26.8309 22.8883ZM25.1121 27.0484L27.3143 27.0484L26.1619 24.3482L25.1121 27.0484Z" fill-rule="evenodd"/>
</g>
<path d="M6.26722 10.2726C6.26722 10.2726 4.77943 15.2782 10.6345 20.4952L11.2491 16.2897L10.6668 20.4952L6.04077 20.9805" fill="none" fill-rule="evenodd" opacity="1" stroke="#000000" stroke-linecap="round" stroke-linejoin="round" stroke-width="2"/>
<path d="M23.801 20.4952C23.801 20.4952 25.1917 14.972 19.3367 9.75497L19.0132 15L19.3367 9.75497L24.9333 9.69027" fill="none" fill-rule="evenodd" opacity="1" stroke="#000000" stroke-linecap="round" stroke-linejoin="round" stroke-width="2"/>
</g>
</svg>
